<svg width="690" height="449" viewBox="0 0 690 449" fill="none" xmlns="http://www.w3.org/2000/svg">
<g clip-path="url(#clip0_330_107)">
<path d="M482.474 441.791L482.346 431.91L435.761 432.512L435.889 442.394L482.474 441.791Z" fill="#E6E6E6"/>
<path d="M499.026 443.996L492.374 443.977L488.261 436.64L492.706 429.327L498.888 429.345C497.34 427.376 495.214 425.941 492.809 425.24C490.404 424.54 487.841 424.61 485.477 425.44C483.114 426.27 481.07 427.819 479.632 429.87C478.193 431.92 477.432 434.37 477.456 436.874C477.48 439.379 478.287 441.814 479.764 443.836C481.241 445.859 483.314 447.369 485.693 448.155C488.071 448.94 490.636 448.961 493.027 448.215C495.418 447.47 497.516 445.994 499.026 443.996V443.996Z" fill="#E6E6E6"/>
<path d="M419.208 443.996L425.861 443.977L429.973 436.64L425.528 429.327L419.347 429.345C420.895 427.376 423.021 425.941 425.426 425.24C427.83 424.54 430.394 424.61 432.757 425.44C435.121 426.27 437.165 427.819 438.603 429.87C440.042 431.92 440.802 434.37 440.779 436.874C440.755 439.379 439.948 441.814 438.471 443.836C436.994 445.859 434.921 447.369 432.542 448.155C430.164 448.94 427.599 448.961 425.208 448.215C422.817 447.47 420.719 445.994 419.208 443.996V443.996Z" fill="#E6E6E6"/>
<path d="M689 420.969H1C0.734784 420.969 0.480429 420.864 0.292892 420.676C0.105356 420.489 0 420.234 0 419.969C0 419.704 0.105356 419.45 0.292892 419.262C0.480429 419.075 0.734784 418.969 1 418.969H689C689.265 418.969 689.52 419.075 689.707 419.262C689.895 419.45 690 419.704 690 419.969C690 420.234 689.895 420.489 689.707 420.676C689.52 420.864 689.265 420.969 689 420.969Z" fill="#1D3E53"/>
<path d="M540.486 230.969C558.712 230.969 573.486 216.195 573.486 197.969C573.486 179.744 558.712 164.969 540.486 164.969C522.261 164.969 507.486 179.744 507.486 197.969C507.486 216.195 522.261 230.969 540.486 230.969Z" fill="#476D7C"/>
<path d="M553.859 383.226L556.401 395.219L603.871 391.124L600.12 373.423L553.859 383.226Z" fill="#FFB8B8"/>
<path d="M550.166 420.709L542.178 383.016L556.741 379.93L561.643 403.06C562.461 406.922 561.712 410.952 559.56 414.262C557.407 417.572 554.028 419.891 550.166 420.709L550.166 420.709Z" fill="#77ABB7"/>
<path d="M524.12 382.586L518.777 393.621L473.673 378.264L481.559 361.979L524.12 382.586Z" fill="#FFB8B8"/>
<path d="M511.808 399.976L522.112 378.695L535.511 385.182L518.72 419.862C516.96 419.01 515.386 417.82 514.086 416.359C512.786 414.899 511.787 413.197 511.145 411.35C510.504 409.504 510.232 407.549 510.346 405.597C510.459 403.645 510.956 401.735 511.808 399.976V399.976Z" fill="#77ABB7"/>
<path d="M435.259 360.793C436.803 361.081 438.392 361.026 439.912 360.633C441.433 360.241 442.849 359.519 444.06 358.52C445.272 357.521 446.25 356.268 446.925 354.85C447.6 353.432 447.956 351.884 447.968 350.313L522.342 281.742L503.872 267.437L436.535 339.38C433.895 339.535 431.404 340.653 429.533 342.522C427.663 344.391 426.543 346.881 426.386 349.52C426.229 352.16 427.045 354.765 428.681 356.843C430.316 358.92 432.657 360.326 435.259 360.793H435.259Z" fill="#FFB8B8"/>
<path d="M536.344 232.459C549.909 232.459 560.906 221.463 560.906 207.898C560.906 194.334 549.909 183.337 536.344 183.337C522.78 183.337 511.783 194.334 511.783 207.898C511.783 221.463 522.78 232.459 536.344 232.459Z" fill="#FFB8B8"/>
<path d="M558.386 352.273C541.158 352.273 520.408 348.644 507.608 333.796L507.319 333.461L507.616 333.133C507.713 333.026 517.13 322.264 507.727 303.072L494.799 307.05L481.929 290.061L489.058 268.672L518.236 245.168C522.417 241.819 527.506 239.802 532.846 239.379C542.511 238.444 551.925 235.763 560.631 231.466C564.615 229.53 569.003 228.571 573.431 228.667L574.005 228.683C575.351 228.721 576.676 229.032 577.899 229.598C579.122 230.163 580.217 230.971 581.119 231.972C582.02 232.973 582.709 234.147 583.143 235.422C583.578 236.697 583.748 238.048 583.645 239.391C581.667 265.021 578.173 326.934 588.437 348.252L588.702 348.803L588.11 348.953C578.354 351.148 568.386 352.261 558.386 352.273V352.273Z" fill="#1D3E53"/>
<path d="M510.986 333.469C510.986 333.469 445.986 327.469 438.986 346.469C431.986 365.469 439.986 374.469 451.986 378.469C463.986 382.469 492.986 387.469 492.986 387.469L505.986 371.469L539.986 373.469C539.986 373.469 577.871 395.443 588.346 418.943C590.593 424.029 594.177 428.411 598.716 431.622C603.255 434.834 608.58 436.755 614.123 437.182C622.521 437.766 629.986 434.594 629.986 421.469C629.986 391.469 587.986 348.469 587.986 348.469L510.986 333.469Z" fill="#77ABB7"/>
<path d="M461.486 362.969C461.486 362.969 478.486 357.969 505.486 370.969Z" fill="#1D3E53"/>
<path d="M511.843 192.235C521.435 198.09 532.248 201.653 543.442 202.647L540.111 198.656C542.536 199.552 545.088 200.059 547.672 200.157C548.966 200.195 550.25 199.928 551.422 199.38C552.595 198.831 553.622 198.015 554.422 196.998C555.075 195.942 555.463 194.743 555.553 193.504C555.643 192.265 555.432 191.023 554.937 189.883C553.922 187.61 552.342 185.634 550.348 184.144C546.813 181.348 542.641 179.47 538.204 178.677C533.767 177.884 529.202 178.201 524.917 179.6C521.978 180.478 519.346 182.167 517.322 184.472C516.327 185.633 515.636 187.023 515.311 188.517C514.986 190.011 515.037 191.563 515.459 193.033" fill="#476D7C"/>
<path d="M540.309 172.604C544.673 162.471 551.206 153.418 559.446 146.083C564.738 141.38 570.918 137.339 577.892 136.12C584.866 134.9 592.725 136.99 597.003 142.631C600.501 147.244 601.155 153.424 600.77 159.2C600.384 164.976 599.093 170.696 599.217 176.484C599.343 182.39 600.942 188.17 603.869 193.301C606.796 198.432 610.958 202.75 615.977 205.865C620.996 208.979 626.714 210.79 632.61 211.134C638.507 211.479 644.397 210.345 649.744 207.835C643.722 211.164 639.03 216.433 633.439 220.443C627.848 224.454 620.476 227.203 614.127 224.553C607.409 221.75 604.327 214.134 601.921 207.264L591.189 176.624C589.365 171.416 587.45 166.053 583.727 161.979C580.004 157.905 573.962 155.422 568.838 157.47C564.954 159.022 562.425 162.728 560.207 166.274C557.99 169.82 555.65 173.594 551.904 175.453C548.157 177.313 542.605 176.168 541.381 172.169" fill="#476D7C"/>
<path d="M539.625 321.192L532.729 328.27L566.095 360.784L572.992 353.706L539.625 321.192Z" fill="#E6E6E6"/>
<path d="M566.51 354.289C565.146 355.689 564.228 357.462 563.871 359.384C563.515 361.305 563.736 363.29 564.507 365.086C565.279 366.882 566.565 368.409 568.204 369.473C569.843 370.538 571.761 371.093 573.716 371.068C575.67 371.042 577.573 370.438 579.184 369.331C580.795 368.224 582.041 366.665 582.766 364.849C583.49 363.034 583.66 361.045 583.254 359.133C582.848 357.221 581.884 355.472 580.485 354.108C578.607 352.279 576.081 351.271 573.46 351.305C570.839 351.338 568.339 352.412 566.51 354.289V354.289ZM576.621 364.142C576.036 364.742 575.287 365.155 574.468 365.329C573.648 365.503 572.796 365.43 572.018 365.12C571.24 364.809 570.571 364.275 570.097 363.584C569.623 362.894 569.364 362.078 569.353 361.241C569.342 360.403 569.58 359.581 570.036 358.879C570.492 358.176 571.147 357.625 571.916 357.294C572.686 356.964 573.537 356.869 574.36 357.022C575.184 357.175 575.944 357.568 576.544 358.153C577.348 358.937 577.808 360.008 577.823 361.131C577.837 362.254 577.405 363.337 576.621 364.142Z" fill="#E6E6E6"/>
<path d="M529.479 307.928L534.17 312.646L531.89 320.742L523.576 322.77L519.218 318.386C518.92 320.873 519.408 323.391 520.613 325.587C521.819 327.783 523.681 329.546 525.939 330.63C528.197 331.714 530.738 332.064 533.205 331.631C535.672 331.198 537.942 330.004 539.696 328.217C541.451 326.429 542.601 324.137 542.987 321.662C543.373 319.187 542.975 316.653 541.848 314.416C540.722 312.179 538.923 310.35 536.705 309.187C534.487 308.024 531.96 307.583 529.479 307.928V307.928Z" fill="#E6E6E6"/>
<path d="M548.736 352.359C548.312 352.359 547.889 352.335 547.468 352.289C544.999 352.002 542.7 350.89 540.943 349.133C539.185 347.376 538.074 345.076 537.788 342.607C537.612 341.067 537.764 339.508 538.233 338.03C538.702 336.553 539.478 335.191 540.51 334.035C541.542 332.878 542.807 331.953 544.222 331.319C545.636 330.685 547.169 330.358 548.719 330.357C549.209 330.36 549.699 330.397 550.185 330.467L583.763 294.722L580.258 283.037L597.863 275.146L602.797 287.206C604.45 291.291 604.742 295.8 603.629 300.065C602.517 304.329 600.059 308.121 596.62 310.878L559.659 340.279C559.698 340.637 559.718 340.997 559.719 341.357C559.718 342.904 559.391 344.434 558.76 345.846C558.128 347.258 557.207 348.522 556.055 349.554C554.049 351.367 551.44 352.367 548.736 352.359Z" fill="#FFB8B8"/>
<path d="M574.986 233.469C576.151 232.952 577.407 232.675 578.681 232.655C579.955 232.636 581.22 232.874 582.399 233.356C583.579 233.837 584.649 234.552 585.545 235.458C586.441 236.364 587.145 237.441 587.614 238.625L604.986 282.469L577.986 300.469L574.986 233.469Z" fill="#1D3E53"/>
<path d="M448.486 243.707V25.2623C448.477 18.5652 445.812 12.1452 441.077 7.40962C436.341 2.67407 429.921 0.00947579 423.224 0H79.9539C73.2569 0.00947843 66.8368 2.67408 62.1013 7.40962C57.3657 12.1452 54.7011 18.5652 54.6917 25.2623V243.707C54.7011 250.404 57.3657 256.824 62.1013 261.56C66.8368 266.295 73.2569 268.96 79.9539 268.969H423.224C429.921 268.96 436.341 266.295 441.077 261.56C445.812 256.824 448.477 250.404 448.486 243.707ZM79.9539 265.997C74.0444 265.99 68.379 263.639 64.2003 259.461C60.0216 255.282 57.6709 249.616 57.6637 243.707V25.2623C57.6709 19.3528 60.0216 13.6873 64.2003 9.50864C68.379 5.32996 74.0444 2.97921 79.9539 2.97202H423.224C429.134 2.97921 434.799 5.32996 438.978 9.50864C443.156 13.6873 445.507 19.3528 445.514 25.2623V243.707C445.507 249.616 443.156 255.282 438.978 259.461C434.799 263.639 429.134 265.99 423.224 265.997H79.9539Z" fill="#1D3E53"/>
<path d="M445.514 39.303H57.6637C57.2696 39.303 56.8917 39.1465 56.613 38.8678C56.3343 38.5891 56.1777 38.2112 56.1777 37.817C56.1777 37.4229 56.3343 37.045 56.613 36.7663C56.8917 36.4876 57.2696 36.3311 57.6637 36.3311H445.514C445.908 36.3311 446.286 36.4876 446.565 36.7663C446.844 37.045 447 37.4229 447 37.817C447 38.2112 446.844 38.5891 446.565 38.8678C446.286 39.1465 445.908 39.303 445.514 39.303Z" fill="#1D3E53"/>
<path d="M82.9259 28.2342C87.0295 28.2342 90.356 24.9076 90.356 20.8041C90.356 16.7006 87.0295 13.374 82.9259 13.374C78.8224 13.374 75.4958 16.7006 75.4958 20.8041C75.4958 24.9076 78.8224 28.2342 82.9259 28.2342Z" fill="#1D3E53"/>
<path d="M108.188 28.2342C112.292 28.2342 115.618 24.9076 115.618 20.8041C115.618 16.7006 112.292 13.374 108.188 13.374C104.085 13.374 100.758 16.7006 100.758 20.8041C100.758 24.9076 104.085 28.2342 108.188 28.2342Z" fill="#1D3E53"/>
<path d="M133.451 28.2342C137.554 28.2342 140.881 24.9076 140.881 20.8041C140.881 16.7006 137.554 13.374 133.451 13.374C129.347 13.374 126.021 16.7006 126.021 20.8041C126.021 24.9076 129.347 28.2342 133.451 28.2342Z" fill="#1D3E53"/>
<path d="M188.979 199.232C188.847 199.232 188.717 199.206 188.596 199.156C188.475 199.105 188.364 199.032 188.271 198.939C188.179 198.846 188.105 198.736 188.055 198.614C188.004 198.493 187.979 198.363 187.979 198.232C187.979 187.805 183.408 181.989 176.033 175.985C175.931 175.902 175.846 175.8 175.783 175.684C175.721 175.568 175.682 175.442 175.668 175.311C175.654 175.18 175.667 175.048 175.704 174.922C175.742 174.795 175.804 174.678 175.887 174.576C175.97 174.474 176.073 174.389 176.188 174.327C176.304 174.265 176.431 174.226 176.562 174.213C176.693 174.199 176.825 174.212 176.951 174.25C177.077 174.288 177.194 174.35 177.296 174.434C185.126 180.809 189.979 187.014 189.979 198.232C189.979 198.363 189.953 198.493 189.903 198.614C189.852 198.736 189.779 198.846 189.686 198.939C189.593 199.032 189.483 199.105 189.361 199.156C189.24 199.206 189.11 199.232 188.979 199.232Z" fill="#1D3E53"/>
<path d="M103.317 199.232C103.185 199.232 103.055 199.206 102.934 199.156C102.813 199.105 102.702 199.032 102.609 198.939C102.517 198.846 102.443 198.736 102.393 198.614C102.342 198.493 102.317 198.363 102.317 198.232C102.317 187.014 107.169 180.809 114.999 174.434C115.101 174.35 115.218 174.288 115.344 174.25C115.47 174.212 115.602 174.199 115.733 174.213C115.864 174.226 115.991 174.265 116.107 174.327C116.223 174.389 116.325 174.474 116.408 174.576C116.491 174.678 116.553 174.795 116.591 174.922C116.629 175.048 116.641 175.18 116.627 175.311C116.614 175.442 116.574 175.568 116.512 175.684C116.449 175.8 116.364 175.902 116.262 175.985C108.887 181.989 104.317 187.806 104.317 198.232C104.317 198.363 104.291 198.493 104.241 198.614C104.19 198.736 104.117 198.846 104.024 198.939C103.931 199.032 103.821 199.105 103.699 199.156C103.578 199.206 103.448 199.232 103.317 199.232Z" fill="#1D3E53"/>
<path d="M180.413 130.701C180.207 130.701 180.005 130.637 179.836 130.518C179.668 130.399 179.54 130.231 179.471 130.036C179.401 129.842 179.394 129.631 179.45 129.432C179.505 129.233 179.621 129.056 179.781 128.926C187.362 122.754 187.979 113.987 187.979 104.002C187.979 103.737 188.084 103.483 188.272 103.295C188.459 103.108 188.713 103.002 188.979 103.002C189.244 103.002 189.498 103.108 189.686 103.295C189.873 103.483 189.979 103.737 189.979 104.002C189.979 114.507 189.306 123.75 181.044 130.477C180.866 130.622 180.643 130.702 180.413 130.701V130.701Z" fill="#1D3E53"/>
<path d="M111.883 130.166C111.653 130.166 111.43 130.087 111.252 129.941C102.989 123.214 102.317 114.214 102.317 104.002C102.317 103.737 102.422 103.483 102.61 103.295C102.797 103.108 103.051 103.002 103.317 103.002C103.582 103.002 103.836 103.108 104.024 103.295C104.211 103.483 104.317 103.737 104.317 104.002C104.317 114.039 104.92 122.208 112.514 128.391C112.675 128.521 112.79 128.698 112.846 128.897C112.902 129.096 112.894 129.307 112.825 129.501C112.756 129.696 112.628 129.864 112.459 129.983C112.291 130.102 112.089 130.166 111.883 130.166V130.166Z" fill="#1D3E53"/>
<path d="M201.828 152.152H180.413C180.148 152.152 179.893 152.047 179.706 151.859C179.518 151.671 179.413 151.417 179.413 151.152C179.413 150.887 179.518 150.632 179.706 150.445C179.893 150.257 180.148 150.152 180.413 150.152H201.828C202.094 150.152 202.348 150.257 202.535 150.445C202.723 150.632 202.828 150.887 202.828 151.152C202.828 151.417 202.723 151.671 202.535 151.859C202.348 152.047 202.094 152.152 201.828 152.152Z" fill="#1D3E53"/>
<path d="M111.883 152.152H90.4675C90.2023 152.152 89.948 152.047 89.7604 151.859C89.5729 151.671 89.4675 151.417 89.4675 151.152C89.4675 150.887 89.5729 150.632 89.7604 150.445C89.948 150.257 90.2023 150.152 90.4675 150.152H111.883C112.148 150.152 112.403 150.257 112.59 150.445C112.778 150.632 112.883 150.887 112.883 151.152C112.883 151.417 112.778 151.671 112.59 151.859C112.403 152.047 112.148 152.152 111.883 152.152Z" fill="#1D3E53"/>
<path d="M146.148 194.948C146.016 194.948 145.886 194.922 145.765 194.872C145.644 194.822 145.533 194.748 145.441 194.655C145.348 194.563 145.274 194.452 145.224 194.331C145.174 194.21 145.148 194.08 145.148 193.948V125.418C145.148 125.153 145.253 124.899 145.441 124.711C145.628 124.524 145.882 124.418 146.148 124.418C146.413 124.418 146.667 124.524 146.855 124.711C147.042 124.899 147.148 125.153 147.148 125.418V193.948C147.148 194.08 147.122 194.21 147.072 194.331C147.021 194.452 146.948 194.563 146.855 194.655C146.762 194.748 146.652 194.822 146.53 194.872C146.409 194.922 146.279 194.948 146.148 194.948V194.948Z" fill="#1D3E53"/>
<path d="M146.148 194.948C136.798 194.937 127.835 191.219 121.224 184.607C114.612 177.996 110.894 169.033 110.883 159.683V133.966C110.883 117.498 124.396 107.267 146.148 107.267C168.889 107.267 181.413 116.749 181.413 133.966V159.683C181.402 169.033 177.683 177.996 171.072 184.608C164.461 191.219 155.497 194.938 146.148 194.948V194.948ZM146.148 109.267C130.067 109.267 112.883 115.755 112.883 133.966V159.683C112.881 164.053 113.739 168.381 115.41 172.419C117.081 176.457 119.53 180.126 122.62 183.217C125.709 186.308 129.377 188.76 133.414 190.432C137.451 192.105 141.778 192.966 146.148 192.966C150.518 192.966 154.845 192.105 158.882 190.432C162.919 188.76 166.587 186.308 169.676 183.217C172.765 180.126 175.215 176.457 176.886 172.419C178.557 168.381 179.415 164.053 179.413 159.683V133.966C179.413 112.476 158.571 109.267 146.148 109.267V109.267Z" fill="#1D3E53"/>
<path d="M125.651 113.441C125.451 113.441 125.255 113.381 125.09 113.269C124.924 113.156 124.796 112.997 124.722 112.811C124.144 111.365 123.81 109.834 123.733 108.279C123.751 102.351 126.11 96.669 130.297 92.4718C134.484 88.2746 140.16 85.9018 146.089 85.8701H146.204C152.125 85.8984 157.795 88.2628 161.982 92.4493C166.169 96.6359 168.534 102.306 168.563 108.227C168.511 109.673 168.203 111.099 167.653 112.438C167.551 112.681 167.356 112.875 167.112 112.975C166.868 113.076 166.595 113.076 166.35 112.976C166.106 112.875 165.912 112.683 165.809 112.439C165.707 112.196 165.705 111.922 165.803 111.677C166.26 110.569 166.517 109.388 166.564 108.19C166.529 102.804 164.371 97.6498 160.558 93.8455C156.746 90.0412 151.587 87.894 146.201 87.8701H146.091C140.7 87.8969 135.536 90.0509 131.724 93.8637C127.911 97.6766 125.758 102.84 125.732 108.232C125.803 109.549 126.089 110.845 126.579 112.07C126.639 112.222 126.662 112.386 126.644 112.548C126.626 112.71 126.569 112.866 126.478 113.001C126.386 113.136 126.263 113.247 126.119 113.324C125.975 113.4 125.814 113.441 125.651 113.441H125.651Z" fill="#1D3E53"/>
<path d="M247.71 108.002H235.71C233.854 108.002 232.073 107.265 230.761 105.952C229.448 104.639 228.71 102.859 228.71 101.002C228.71 99.1459 229.448 97.3655 230.761 96.0527C232.073 94.7399 233.854 94.0024 235.71 94.0024H247.71C249.567 94.0024 251.347 94.7399 252.66 96.0527C253.973 97.3655 254.71 99.1459 254.71 101.002C254.71 102.859 253.973 104.639 252.66 105.952C251.347 107.265 249.567 108.002 247.71 108.002V108.002Z" fill="#77ABB7"/>
<path d="M329.71 137.502H317.71C315.854 137.502 314.073 136.765 312.761 135.452C311.448 134.139 310.71 132.359 310.71 130.502C310.71 128.646 311.448 126.865 312.761 125.553C314.073 124.24 315.854 123.502 317.71 123.502H329.71C331.567 123.502 333.347 124.24 334.66 125.553C335.973 126.865 336.71 128.646 336.71 130.502C336.71 132.359 335.973 134.139 334.66 135.452C333.347 136.765 331.567 137.502 329.71 137.502V137.502Z" fill="#77ABB7"/>
<path d="M367.71 137.502H355.71C353.854 137.502 352.073 136.765 350.761 135.452C349.448 134.139 348.71 132.359 348.71 130.502C348.71 128.646 349.448 126.865 350.761 125.553C352.073 124.24 353.854 123.502 355.71 123.502H367.71C369.567 123.502 371.347 124.24 372.66 125.553C373.973 126.865 374.71 128.646 374.71 130.502C374.71 132.359 373.973 134.139 372.66 135.452C371.347 136.765 369.567 137.502 367.71 137.502V137.502Z" fill="#77ABB7"/>
<path d="M405.71 137.502H393.71C391.854 137.502 390.073 136.765 388.761 135.452C387.448 134.139 386.71 132.359 386.71 130.502C386.71 128.646 387.448 126.865 388.761 125.553C390.073 124.24 391.854 123.502 393.71 123.502H405.71C407.567 123.502 409.347 124.24 410.66 125.553C411.973 126.865 412.71 128.646 412.71 130.502C412.71 132.359 411.973 134.139 410.66 135.452C409.347 136.765 407.567 137.502 405.71 137.502V137.502Z" fill="#77ABB7"/>
<path d="M330.71 108.502H274.71C272.854 108.502 271.073 107.765 269.761 106.452C268.448 105.139 267.71 103.359 267.71 101.502C267.71 99.6459 268.448 97.8655 269.761 96.5527C271.073 95.2399 272.854 94.5024 274.71 94.5024H330.71C332.567 94.5024 334.347 95.2399 335.66 96.5527C336.973 97.8655 337.71 99.6459 337.71 101.502C337.71 103.359 336.973 105.139 335.66 106.452C334.347 107.765 332.567 108.502 330.71 108.502Z" fill="#77ABB7"/>
<path d="M291.71 136.502H235.71C233.854 136.502 232.073 135.765 230.761 134.452C229.448 133.139 228.71 131.359 228.71 129.502C228.71 127.646 229.448 125.865 230.761 124.553C232.073 123.24 233.854 122.502 235.71 122.502H291.71C293.567 122.502 295.347 123.24 296.66 124.553C297.973 125.865 298.71 127.646 298.71 129.502C298.71 131.359 297.973 133.139 296.66 134.452C295.347 135.765 293.567 136.502 291.71 136.502Z" fill="#77ABB7"/>
<path d="M401.71 108.502H358.71C356.854 108.502 355.073 107.765 353.761 106.452C352.448 105.139 351.71 103.359 351.71 101.502C351.71 99.6459 352.448 97.8655 353.761 96.5527C355.073 95.2399 356.854 94.5024 358.71 94.5024H401.71C403.567 94.5024 405.347 95.2399 406.66 96.5527C407.973 97.8655 408.71 99.6459 408.71 101.502C408.71 103.359 407.973 105.139 406.66 106.452C405.347 107.765 403.567 108.502 401.71 108.502Z" fill="#77ABB7"/>
<path d="M247.71 167.002H235.71C233.854 167.002 232.073 166.265 230.761 164.952C229.448 163.639 228.71 161.859 228.71 160.002C228.71 158.146 229.448 156.365 230.761 155.053C232.073 153.74 233.854 153.002 235.71 153.002H247.71C249.567 153.002 251.347 153.74 252.66 155.053C253.973 156.365 254.71 158.146 254.71 160.002C254.71 161.859 253.973 163.639 252.66 164.952C251.347 166.265 249.567 167.002 247.71 167.002V167.002Z" fill="#77ABB7"/>
<path d="M330.71 167.502H274.71C272.854 167.502 271.073 166.765 269.761 165.452C268.448 164.139 267.71 162.359 267.71 160.502C267.71 158.646 268.448 156.865 269.761 155.553C271.073 154.24 272.854 153.502 274.71 153.502H330.71C332.567 153.502 334.347 154.24 335.66 155.553C336.973 156.865 337.71 158.646 337.71 160.502C337.71 162.359 336.973 164.139 335.66 165.452C334.347 166.765 332.567 167.502 330.71 167.502V167.502Z" fill="#77ABB7"/>
<path d="M401.71 167.502H358.71C356.854 167.502 355.073 166.765 353.761 165.452C352.448 164.139 351.71 162.359 351.71 160.502C351.71 158.646 352.448 156.865 353.761 155.553C355.073 154.24 356.854 153.502 358.71 153.502H401.71C403.567 153.502 405.347 154.24 406.66 155.553C407.973 156.865 408.71 158.646 408.71 160.502C408.71 162.359 407.973 164.139 406.66 165.452C405.347 166.765 403.567 167.502 401.71 167.502V167.502Z" fill="#77ABB7"/>
<path d="M382.71 191.002C382.713 189.147 383.451 187.367 384.763 186.055C386.075 184.743 387.855 184.005 389.71 184.002H401.71C403.567 184.002 405.347 184.74 406.66 186.053C407.973 187.365 408.71 189.146 408.71 191.002C408.71 192.859 407.973 194.639 406.66 195.952C405.347 197.265 403.567 198.002 401.71 198.002H389.71C387.855 198 386.075 197.262 384.763 195.95C383.451 194.638 382.713 192.858 382.71 191.002V191.002Z" fill="#77ABB7"/>
<path d="M299.71 191.502C299.713 189.647 300.451 187.867 301.763 186.555C303.075 185.243 304.855 184.505 306.71 184.502H362.71C364.567 184.502 366.347 185.24 367.66 186.553C368.973 187.865 369.71 189.646 369.71 191.502C369.71 193.359 368.973 195.139 367.66 196.452C366.347 197.765 364.567 198.502 362.71 198.502H306.71C304.855 198.5 303.075 197.762 301.763 196.45C300.451 195.138 299.713 193.358 299.71 191.502Z" fill="#77ABB7"/>
<path d="M228.71 191.502C228.713 189.647 229.451 187.867 230.763 186.555C232.075 185.243 233.855 184.505 235.71 184.502H278.71C280.567 184.502 282.347 185.24 283.66 186.553C284.973 187.865 285.71 189.646 285.71 191.502C285.71 193.359 284.973 195.139 283.66 196.452C282.347 197.765 280.567 198.502 278.71 198.502H235.71C233.855 198.5 232.075 197.762 230.763 196.45C229.451 195.138 228.713 193.358 228.71 191.502Z" fill="#77ABB7"/>
</g>
<defs>
<clipPath id="clip0_330_107">
<rect width="690" height="448.759" fill="white"/>
</clipPath>
</defs>
</svg>
