<svg width="965" height="521" viewBox="0 0 965 521" fill="none" xmlns="http://www.w3.org/2000/svg">
<path opacity="0.1" d="M965 334.501C965.053 362.418 957.431 389.813 942.967 413.692C942.967 442.895 929.353 469.365 907.269 488.656C901.742 493.487 895.791 497.809 889.487 501.571C889.234 501.731 888.973 501.883 888.712 502.035C888.239 502.313 887.767 502.592 887.286 502.878L886.839 503.14C865.935 514.79 842.376 520.84 818.445 520.702H183.19C139.385 520.702 99.731 505.451 71.0004 480.803C42.2697 456.155 24.5639 422.043 24.5639 384.421C8.47565 359.648 -0.0589418 330.729 0.000306397 301.19C0.000306397 217.562 66.8418 149.768 149.305 149.768C152.224 149.768 155.117 149.869 157.994 150.029C209.736 61.7957 326.447 0.268555 462.036 0.268555C545.394 0.268555 621.59 23.5078 679.954 61.9054C702.063 49.4075 727.034 42.8539 752.43 42.8838C834.877 42.8838 901.736 110.678 901.736 194.306C901.723 199.598 901.442 204.885 900.892 210.148C920.766 224.216 936.965 242.858 948.122 264.501C959.28 286.143 965.069 310.152 965 334.501Z" fill="#77ABB7"/>
<path opacity="0.1" d="M348.379 382.321C531 382.321 679.043 378.355 679.043 373.464C679.043 368.572 531 364.606 348.379 364.606C165.758 364.606 17.7146 368.572 17.7146 373.464C17.7146 378.355 165.758 382.321 348.379 382.321Z" fill="#6C63FF"/>
<g opacity="0.7">
<path d="M225.223 308.09H119.782V366.294H225.223V308.09Z" fill="#77ABB7"/>
<path opacity="0.1" d="M188.951 318.212H156.897V324.96H188.951V318.212Z" fill="black"/>
<path opacity="0.1" d="M184.945 319.056H160.904V324.117H184.945V319.056Z" fill="black"/>
<path d="M332.352 308.09H226.91V366.294H332.352V308.09Z" fill="#77ABB7"/>
<path opacity="0.1" d="M296.08 318.212H264.026V324.96H296.08V318.212Z" fill="black"/>
<path opacity="0.1" d="M292.073 319.056H268.033V324.117H292.073V319.056Z" fill="black"/>
<path d="M225.223 248.199H119.782V306.403H225.223V248.199Z" fill="#77ABB7"/>
<path opacity="0.1" d="M188.951 258.321H156.897V265.07H188.951V258.321Z" fill="black"/>
<path opacity="0.1" d="M184.945 259.165H160.904V264.226H184.945V259.165Z" fill="black"/>
<path d="M332.352 248.199H226.91V306.403H332.352V248.199Z" fill="#77ABB7"/>
<path opacity="0.1" d="M296.08 258.321H264.026V265.07H296.08V258.321Z" fill="black"/>
<path opacity="0.1" d="M292.073 259.165H268.033V264.226H292.073V259.165Z" fill="black"/>
<path d="M225.223 187.465H119.782V245.669H225.223V187.465Z" fill="#77ABB7"/>
<path opacity="0.1" d="M188.951 197.587H156.897V204.335H188.951V197.587Z" fill="black"/>
<path opacity="0.1" d="M184.945 198.431H160.904V203.492H184.945V198.431Z" fill="black"/>
<path d="M332.352 187.465H226.91V245.669H332.352V187.465Z" fill="#77ABB7"/>
<path opacity="0.1" d="M296.08 197.587H264.026V204.335H296.08V197.587Z" fill="black"/>
<path opacity="0.1" d="M292.073 198.431H268.033V203.492H292.073V198.431Z" fill="black"/>
<path d="M332.352 126.73H226.91V184.934H332.352V126.73Z" fill="#77ABB7"/>
<path opacity="0.1" d="M296.08 136.853H264.026V143.601H296.08V136.853Z" fill="black"/>
<path opacity="0.1" d="M292.073 137.696H268.033V142.757H292.073V137.696Z" fill="black"/>
</g>
<g opacity="0.7">
<path d="M439.48 307.247H334.039V365.451H439.48V307.247Z" fill="#77ABB7"/>
<path opacity="0.1" d="M403.209 317.369H371.154V324.117H403.209V317.369Z" fill="black"/>
<path opacity="0.1" d="M399.202 318.213H375.161V323.274H399.202V318.213Z" fill="black"/>
<path d="M546.609 307.247H441.167V365.451H546.609V307.247Z" fill="#77ABB7"/>
<path opacity="0.1" d="M510.337 317.369H478.283V324.117H510.337V317.369Z" fill="black"/>
<path opacity="0.1" d="M506.33 318.213H482.29V323.274H506.33V318.213Z" fill="black"/>
<path d="M439.48 247.356H334.039V305.56H439.48V247.356Z" fill="#77ABB7"/>
<path opacity="0.1" d="M403.209 257.479H371.154V264.227H403.209V257.479Z" fill="black"/>
<path opacity="0.1" d="M399.202 258.322H375.161V263.383H399.202V258.322Z" fill="black"/>
<path d="M546.609 247.356H441.167V305.56H546.609V247.356Z" fill="#77ABB7"/>
<path opacity="0.1" d="M510.337 257.479H478.283V264.227H510.337V257.479Z" fill="black"/>
<path opacity="0.1" d="M506.33 258.322H482.29V263.383H506.33V258.322Z" fill="black"/>
<path d="M439.48 186.622H334.039V244.826H439.48V186.622Z" fill="#77ABB7"/>
<path opacity="0.1" d="M403.209 196.744H371.154V203.492H403.209V196.744Z" fill="black"/>
<path opacity="0.1" d="M399.202 197.588H375.161V202.649H399.202V197.588Z" fill="black"/>
<path d="M546.609 186.622H441.167V244.826H546.609V186.622Z" fill="#77ABB7"/>
<path opacity="0.1" d="M510.337 196.744H478.283V203.492H510.337V196.744Z" fill="black"/>
<path opacity="0.1" d="M506.33 197.588H482.29V202.649H506.33V197.588Z" fill="black"/>
<path d="M546.609 125.888H441.167V184.091H546.609V125.888Z" fill="#77ABB7"/>
<path opacity="0.1" d="M510.337 136.01H478.283V142.758H510.337V136.01Z" fill="black"/>
<path opacity="0.1" d="M506.33 136.854H482.29V141.915H506.33V136.854Z" fill="black"/>
</g>
<path d="M605.116 259.799C605.047 259.16 604.818 258.548 604.451 258.021C604.084 257.493 603.591 257.066 603.016 256.779C602.532 256.573 602.011 256.466 601.485 256.465C600.959 256.464 600.437 256.569 599.953 256.774C599.468 256.978 599.029 257.278 598.663 257.656C598.296 258.034 598.01 258.481 597.82 258.972L579.085 298.39L574.867 453.6H581.615L584.146 298.736L604.762 262.245C605.135 261.487 605.259 260.631 605.116 259.799Z" fill="#254B62"/>
<path opacity="0.1" d="M907.269 488.656C901.742 493.487 895.791 497.809 889.488 501.571C889.389 501.709 889.279 501.839 889.159 501.959C888.49 502.527 887.694 502.926 886.839 503.123C865.935 514.773 842.376 520.822 818.445 520.685H354.655C301.512 515.219 269.087 507.973 269.087 500.019C269.087 493.852 288.556 488.108 322.078 483.3C325.553 482.794 329.177 482.304 332.951 481.832C335.273 481.54 337.649 481.258 340.079 480.989L344.203 480.508C347.263 480.159 350.403 479.819 353.626 479.487H353.887L357.261 479.15C360.113 478.854 363.023 478.576 365.992 478.306L368.151 478.112L373.66 477.623C377.236 477.302 380.891 476.996 384.626 476.703C387.724 476.462 390.873 476.22 394.073 475.978C426.515 473.574 463.917 471.76 504.618 470.588L516.242 470.191L520.156 470.107L528.422 469.921L531.737 469.854L535.221 469.786L537.701 469.744L549.342 469.559L555.323 469.474H556.546C570.689 469.306 585.096 469.219 599.768 469.213C628.769 469.213 656.892 469.559 683.691 470.217C699.077 470.588 713.994 471.06 728.441 471.634H728.576C770.229 473.27 807.513 475.683 838.37 478.677L838.935 478.736C846.856 479.504 854.355 480.322 861.39 481.166C868.011 481.959 874.228 482.794 879.998 483.646C881.997 483.941 883.937 484.245 885.827 484.54L886.307 484.624C894.304 485.915 901.322 487.231 907.269 488.656Z" fill="#77ABB7"/>
<path d="M889.488 501.57C889.389 501.709 889.279 501.839 889.159 501.959C888.49 502.526 887.694 502.926 886.839 503.123C885.133 503.601 883.379 503.884 881.609 503.966H881.078C880.067 504 879.055 503.966 878.049 503.865C877.315 503.759 876.573 503.711 875.831 503.721H875.73C874.651 503.873 873.591 504.136 872.566 504.506C870.284 505.132 867.932 505.466 865.565 505.501H864.722C862.073 505.501 859.39 505.409 856.733 505.425C856.303 505.425 855.89 505.425 855.443 505.425C850.888 505.544 846.358 506.269 841.803 506.345H840.343C835.881 506.235 831.318 505.282 827.766 502.583C827.05 502.109 826.469 501.458 826.079 500.693C825.777 499.886 825.676 499.018 825.784 498.163C825.869 496.636 826.164 494.974 827.311 493.945C828.032 493.392 828.859 492.993 829.74 492.772C831.284 492.275 832.836 491.794 834.38 491.313C835.923 490.832 837.686 490.318 839.348 489.829L839.669 489.727L840.597 489.449L841.195 489.247C841.922 489.013 842.618 488.696 843.271 488.302C844.131 487.757 844.86 487.028 845.405 486.168C845.497 486.016 845.599 485.855 845.683 485.695C845.767 485.535 845.683 485.434 845.624 485.299C845.481 484.244 845.371 483.165 845.185 482.136C842.811 481.585 840.647 480.361 838.952 478.61C837.495 477.166 836.269 475.507 835.316 473.692C833.216 469.744 832.136 465.332 830.567 461.14C828.163 454.763 824.662 448.875 821.136 443.038C817.914 437.656 814.675 432.258 811.014 427.171C808.576 423.797 805.953 420.583 803.54 417.2C796.716 407.762 791.82 397.07 789.133 385.737C788.721 383.562 788.138 381.424 787.387 379.343C785.936 375.8 783.279 372.915 781.22 369.676C779.008 366.184 777.492 362.297 776.758 358.229C776.336 355.918 775.628 353.421 773.325 353.168L773.08 353.649C768.306 362.928 763.405 372.375 756.21 379.95C755.059 381.064 754.006 382.274 753.063 383.569C752.307 384.824 751.631 386.126 751.039 387.466C749.9 389.873 748.388 392.085 746.56 394.02C746.016 394.571 745.423 395.07 744.788 395.513C743.946 396.126 743.008 396.596 742.013 396.905C741.621 397.025 741.221 397.115 740.815 397.175C740.815 397.276 740.857 397.369 740.866 397.47C740.874 397.572 740.916 397.69 740.933 397.799C742.174 404.548 741.642 411.503 739.39 417.985C739.331 418.187 739.263 418.381 739.187 418.584C738.839 419.529 738.459 420.456 738.048 421.367C737.019 423.603 735.796 425.745 734.835 428.015C734.674 428.403 734.514 428.791 734.371 429.179C730.997 438.213 731.84 448.301 731.401 458.011C731.363 460.134 731.111 462.247 730.651 464.32C730.077 466.657 729.158 469.069 728.651 471.482C728.19 473.29 728.152 475.181 728.542 477.007L728.339 477.083C727.437 477.42 726.517 477.724 725.598 478.011V478.137C725.927 480.027 726.247 481.916 726.576 483.797C726.855 485.417 727.184 487.171 728.314 488.319C728.622 488.572 728.904 488.854 729.158 489.162C729.824 490.208 729.234 491.592 729.36 492.832C729.546 494.586 731.165 496.079 730.912 497.825C730.798 498.347 730.559 498.833 730.215 499.242C729.871 499.65 729.433 499.969 728.938 500.17C728.523 500.358 728.087 500.497 727.639 500.584L727.361 500.643C726.855 500.735 726.349 500.786 725.842 500.837C719.558 501.461 713.19 502.085 706.964 501.022C705.733 500.811 704.51 500.533 703.261 500.432C701.684 500.361 700.104 500.426 698.537 500.626C686.989 501.719 675.375 501.945 663.792 501.301C660.781 501.132 657.322 500.643 655.728 498.07C654.404 495.936 654.885 493.177 655.551 490.74C655.742 489.843 656.087 488.987 656.572 488.209C656.626 488.125 656.688 488.046 656.757 487.973C658.309 486.041 661.228 485.923 663.742 485.999L671.958 486.244C672.767 486.309 673.581 486.247 674.37 486.058C675.703 485.67 676.715 484.607 677.964 484.008C679.533 483.257 681.507 483.165 682.637 481.882L682.78 481.697C682.98 481.425 683.166 481.144 683.337 480.853C683.337 480.794 683.413 480.735 683.455 480.676C683.486 480.624 683.52 480.573 683.556 480.524C684.594 479.158 686.407 478.702 687.884 477.834C688.107 477.703 688.319 477.554 688.516 477.386L688.685 477.235C687.096 476.101 685.709 474.706 684.585 473.11C684.152 472.643 683.831 472.084 683.649 471.473C683.546 471.015 683.581 470.536 683.75 470.098C683.787 469.991 683.832 469.886 683.885 469.786L683.927 469.702C684.501 468.572 685.682 467.551 686.332 466.395C686.356 466.359 686.376 466.319 686.391 466.277C687.285 464.59 687.462 461.975 686.137 460.617C686.812 449.508 689.866 438.685 690.541 427.542C690.811 423.13 690.701 418.702 690.903 414.273C691.106 409.845 691.578 405.551 692.076 401.207C693.189 391.279 695.889 381.553 695.509 371.582C695.477 370.653 695.516 369.722 695.627 368.799C695.623 368.731 695.623 368.664 695.627 368.596C695.897 366.553 696.535 364.576 697.508 362.759C698.731 360.706 700.116 358.754 701.65 356.922C706.838 350.173 713.071 343.425 714.919 335.125C715.872 330.84 717.981 326.917 720.081 323.062C721.321 320.768 722.612 318.414 724.594 316.727C725.668 315.984 726.665 315.136 727.572 314.197C728.955 312.409 729.006 309.937 729.824 307.811C730.246 306.706 730.895 305.694 731.216 304.555C731.216 304.437 731.275 304.328 731.3 304.209C731.487 303.06 731.586 301.898 731.595 300.734C731.595 300.397 731.646 300.068 731.688 299.739C732.181 296.404 733.15 293.157 734.565 290.097C734.742 289.709 734.91 289.313 735.079 288.925C731.187 286.654 727.754 283.676 724.957 280.143C724.008 279.001 723.185 277.759 722.502 276.44C720.764 272.99 720.368 269.059 719.55 265.28C717.593 256.272 713.114 247.786 712.489 238.574C712.304 235.765 712.489 232.863 711.511 230.206C711.242 229.488 710.923 228.789 710.558 228.114C710.406 227.828 710.262 227.541 710.111 227.271L709.942 226.95L709.512 226.107L708.82 226.647C691.563 240.159 673.445 252.535 654.581 263.695L652.961 264.656C652.118 265.063 651.384 265.664 650.819 266.411C650.751 266.52 650.692 266.63 650.633 266.74C650.245 267.541 650.144 268.427 649.79 269.27C649.031 271.202 647.082 272.434 645.091 273.007C641.49 273.933 637.67 273.441 634.421 271.632C634.007 271.421 633.577 271.202 633.206 270.957C632.219 271.504 631.179 271.948 630.102 272.282C626.728 273.26 623.193 273.218 619.701 273.21C616.209 273.201 612.641 273.21 609.334 274.357C607.124 275.108 604.981 276.348 602.687 276.466C602.423 276.483 602.158 276.483 601.894 276.466C600.586 276.316 599.313 275.942 598.132 275.361L597.44 275.049C597.082 274.879 596.733 274.69 596.394 274.483C596.025 274.255 595.682 273.987 595.373 273.682C594.927 273.234 594.602 272.679 594.429 272.071C594.315 271.631 594.315 271.169 594.429 270.73C594.461 270.532 594.563 270.353 594.716 270.224C594.866 270.134 595.039 270.091 595.213 270.097C596.18 270.086 597.146 270.168 598.098 270.342C598.657 270.418 599.221 270.449 599.785 270.434H600.089C600.586 270.381 601.067 270.226 601.503 269.98C601.938 269.733 602.318 269.4 602.619 269C602.712 268.877 602.786 268.74 602.839 268.596C602.941 268.358 602.992 268.103 602.991 267.845C602.995 267.78 602.995 267.715 602.991 267.651C602.636 267.49 602.282 267.33 601.945 267.136C601.767 267.043 601.599 266.942 601.43 266.841L601.329 266.773C601.026 266.568 600.743 266.333 600.485 266.073C600.321 265.911 600.177 265.73 600.055 265.533C599.831 265.228 599.663 264.885 599.557 264.521C598.862 264.376 598.143 264.396 597.457 264.58C596.538 264.833 595.61 265.373 594.699 265.559C594.239 265.674 593.755 265.654 593.307 265.5C591.991 265.027 591.527 263.425 591.249 262.05C591.198 261.788 591.139 261.518 591.097 261.248C591 260.73 591 260.198 591.097 259.679C591.505 258.501 592.283 257.486 593.315 256.786L596.082 254.466L596.284 254.298C596.284 254.07 596.192 253.842 596.158 253.614C596.061 253.093 596.061 252.558 596.158 252.037C596.566 250.861 597.344 249.848 598.376 249.152L604.5 243.998C605.648 243.036 606.896 242.024 608.389 241.923C610.608 241.771 612.379 243.61 614.041 245.086C616.133 246.942 618.672 248.46 621.464 248.646C622.793 248.707 624.123 248.524 625.386 248.106L626.103 247.87C625.951 247.558 625.8 247.246 625.656 246.934C625.412 246.419 625.167 245.896 624.931 245.373C628.524 245.145 631.789 243.171 634.513 240.81C637.238 238.448 639.575 235.656 642.324 233.336C645.294 230.805 648.702 228.924 651.713 226.486C658.714 220.809 663.362 212.467 670.853 207.465C673.451 205.719 676.454 204.327 678.225 201.729C678.773 200.885 679.187 200.042 679.752 199.198C681.549 196.668 684.628 195.503 687.167 193.749C689.706 191.994 691.916 189.422 693.982 186.95C695.45 185.187 696.926 183.424 698.326 181.611C699.617 179.206 700.705 176.693 702.055 174.322C703.2 172.32 704.536 170.433 706.045 168.688C706.391 168.013 706.745 167.338 707.125 166.68C707.504 166.022 707.782 165.575 708.137 164.993C708.381 164.613 708.634 164.251 708.896 163.88C708.128 162.521 707.394 161.349 707.049 160.834L706.88 160.607C706.136 159.814 705.341 159.07 704.501 158.38C703.619 158.246 702.746 158.06 701.886 157.823C696.68 156.396 692.088 153.297 688.817 149.003C685.545 144.709 683.777 139.459 683.784 134.061C683.78 134.036 683.78 134.01 683.784 133.985C683.787 130.119 684.706 126.309 686.466 122.867C686.821 122.175 687.2 121.509 687.614 120.859C687.228 120.738 686.853 120.585 686.492 120.404C685.876 120.101 685.339 119.659 684.923 119.113C684.579 118.627 684.356 118.066 684.273 117.477C684.131 116.087 684.339 114.683 684.881 113.394C685.111 112.774 685.373 112.166 685.665 111.572C685.688 111.537 685.708 111.501 685.724 111.462C689.495 103.871 697.534 99.2059 705.564 98.8769C714.227 98.5311 722.662 102.597 729.495 108.417C731.534 110.09 733.358 112.008 734.927 114.128C738.495 119.088 740.107 125.431 740.579 131.716C740.756 133.659 740.722 135.617 740.478 137.553C740.388 138.243 740.247 138.925 740.056 139.594C739.946 139.991 739.803 140.387 739.651 140.784C739.499 141.18 739.407 141.357 739.272 141.627V141.669C739.145 141.939 739.002 142.192 738.858 142.445L738.782 142.555L738.673 142.732C738.74 142.892 738.816 143.061 738.892 143.221C738.968 143.382 739.035 143.534 739.12 143.685H739.221C740.908 143.82 742.469 144.056 744.189 144.191C744.999 144.23 745.802 144.354 746.585 144.563C748.272 145.069 749.546 146.3 750.963 147.296C754.472 149.776 758.791 150.931 762.241 153.496C767.302 157.275 769.833 163.517 772.903 169.109C776.952 176.6 783.549 182.977 786.459 190.991C787.775 194.629 789.096 198.262 790.423 201.889C793.013 209 795.603 216.145 799.12 222.851C804.013 232.18 810.634 240.565 814.557 250.367C814.946 251.349 815.677 252.158 816.615 252.644C821.96 260.192 826.712 268.142 830.828 276.423C832.996 280.801 835.046 285.348 835.679 290.198C836.172 294.517 835.814 298.89 834.624 303.071C833.952 305.554 833.126 307.994 832.153 310.376C831.774 311.21 831.491 312.084 831.309 312.982C831.309 313.075 831.309 313.168 831.309 313.261C831.141 314.88 831.756 316.483 831.925 318.102C832.066 319.406 831.919 320.725 831.495 321.966C831.427 322.16 831.351 322.354 831.276 322.548C830.752 323.534 830.31 324.561 829.951 325.618C829.921 325.746 829.898 325.876 829.884 326.006C829.605 327.837 830.331 329.684 830.727 331.515C832.212 338.128 831.942 345.011 831.571 351.759C831.377 355.133 834.101 357.841 836.379 360.33C840.597 364.994 843.895 370.452 847.075 375.884C848.81 378.642 850.271 381.563 851.436 384.606C852.642 388.082 853.123 391.76 853.789 395.361C855.94 406.496 862.967 416.332 864.873 427.492C865.758 432.602 868.011 437.377 871.394 441.309C872.413 442.362 873.352 443.489 874.203 444.683C874.79 445.634 875.258 446.654 875.595 447.719C876.424 450.2 876.815 452.806 876.75 455.421C876.617 456.672 876.688 457.937 876.961 459.166C877.754 461.756 880.588 463.181 881.761 465.619C882.933 468.057 882.124 471.178 882.604 473.945C882.982 476.176 884.187 478.182 885.979 479.563C885.304 480.153 884.595 480.693 883.87 481.25C884.541 481.771 885.13 482.391 885.616 483.089C885.948 483.556 886.231 484.056 886.459 484.582C887.573 487.171 887.607 490.25 888.518 493.017C888.906 494.164 889.454 495.379 889.117 496.543C888.972 496.876 888.876 497.229 888.83 497.589C888.83 498.348 889.623 498.846 889.926 499.538C890.037 499.885 890.054 500.256 889.977 500.612C889.901 500.969 889.732 501.299 889.488 501.57Z" fill="url(#paint0_linear_38_343)"/>
<path d="M710.963 172.593C716.125 171.202 720.722 168.291 725.227 165.415L740.925 155.419C736.665 155.082 732.987 152.045 730.802 148.367C728.618 144.689 727.715 140.413 726.973 136.212C720.224 138.844 714.379 143.306 708.93 148.021C706.77 149.886 702.181 152.703 701.515 155.613C700.849 158.523 705.1 160.885 706.745 162.834C707.31 163.483 712.633 172.129 710.963 172.593Z" fill="#FBBEBE"/>
<path opacity="0.1" d="M710.963 172.593C716.125 171.202 720.722 168.291 725.227 165.415L740.925 155.419C736.665 155.082 732.987 152.045 730.802 148.367C728.618 144.689 727.715 140.413 726.973 136.212C720.224 138.844 714.379 143.306 708.93 148.021C706.77 149.886 702.181 152.703 701.515 155.613C700.849 158.523 705.1 160.885 706.745 162.834C707.31 163.483 712.633 172.129 710.963 172.593Z" fill="black"/>
<path d="M625.184 255.159C622.417 256.576 619.473 258.027 616.377 257.824C613.594 257.647 611.055 256.137 608.963 254.29C607.276 252.822 605.538 250.992 603.319 251.144C601.835 251.245 600.586 252.249 599.439 253.202L593.324 258.322C592.294 259.014 591.516 260.02 591.105 261.19C590.984 261.984 591.033 262.795 591.249 263.569C591.527 264.935 591.991 266.53 593.307 266.994C594.623 267.458 596.057 266.462 597.449 266.083C598.299 265.865 599.192 265.881 600.034 266.129C600.875 266.377 601.635 266.848 602.231 267.491C602.729 267.98 603.029 268.634 603.075 269.33C603.075 270.857 601.388 271.861 599.836 271.937C598.284 272.013 596.799 271.506 595.264 271.599C595.171 271.588 595.077 271.594 594.987 271.62C594.897 271.645 594.813 271.688 594.74 271.746C594.667 271.804 594.606 271.876 594.561 271.958C594.517 272.04 594.489 272.131 594.479 272.223C594.384 272.756 594.425 273.305 594.597 273.818C594.769 274.331 595.068 274.792 595.466 275.159C596.268 275.891 597.201 276.463 598.216 276.846C599.396 277.429 600.67 277.801 601.978 277.943C604.568 278.111 606.947 276.677 609.401 275.842C612.708 274.729 616.268 274.695 619.76 274.703C623.252 274.712 626.795 274.763 630.144 273.784C633.493 272.806 636.673 270.638 637.98 267.407C638.135 267.105 638.185 266.761 638.124 266.428C637.993 266.073 637.743 265.775 637.415 265.585C632.708 262.101 630.802 257.867 625.504 255.361L625.184 255.159Z" fill="#FBBEBE"/>
<path opacity="0.1" d="M625.184 255.159C622.417 256.576 619.473 258.027 616.377 257.824C613.594 257.647 611.055 256.137 608.963 254.29C607.276 252.822 605.538 250.992 603.319 251.144C601.835 251.245 600.586 252.249 599.439 253.202L593.324 258.322C592.294 259.014 591.516 260.02 591.105 261.19C590.984 261.984 591.033 262.795 591.249 263.569C591.527 264.935 591.991 266.53 593.307 266.994C594.623 267.458 596.057 266.462 597.449 266.083C598.299 265.865 599.192 265.881 600.034 266.129C600.875 266.377 601.635 266.848 602.231 267.491C602.729 267.98 603.029 268.634 603.075 269.33C603.075 270.857 601.388 271.861 599.836 271.937C598.284 272.013 596.799 271.506 595.264 271.599C595.171 271.588 595.077 271.594 594.987 271.62C594.897 271.645 594.813 271.688 594.74 271.746C594.667 271.804 594.606 271.876 594.561 271.958C594.517 272.04 594.489 272.131 594.479 272.223C594.384 272.756 594.425 273.305 594.597 273.818C594.769 274.331 595.068 274.792 595.466 275.159C596.268 275.891 597.201 276.463 598.216 276.846C599.396 277.429 600.67 277.801 601.978 277.943C604.568 278.111 606.947 276.677 609.401 275.842C612.708 274.729 616.268 274.695 619.76 274.703C623.252 274.712 626.795 274.763 630.144 273.784C633.493 272.806 636.673 270.638 637.98 267.407C638.135 267.105 638.185 266.761 638.124 266.428C637.993 266.073 637.743 265.775 637.415 265.585C632.708 262.101 630.802 257.867 625.504 255.361L625.184 255.159Z" fill="black"/>
<path d="M687.715 478.121C686.239 478.965 684.425 479.437 683.388 480.804C683.05 481.242 682.822 481.757 682.46 482.179C681.338 483.494 679.347 483.554 677.787 484.304C676.538 484.895 675.526 485.991 674.202 486.337C673.409 486.525 672.592 486.588 671.781 486.523L663.581 486.278C660.983 486.202 657.938 486.337 656.428 488.454C655.938 489.23 655.589 490.087 655.399 490.985C654.767 493.406 654.252 496.147 655.576 498.273C657.162 500.804 660.638 501.318 663.632 501.487C675.2 502.127 686.8 501.901 698.335 500.812C699.895 500.613 701.47 500.548 703.042 500.618C704.29 500.719 705.513 500.998 706.745 501.209C712.962 502.263 719.322 501.647 725.598 501.023C726.659 500.972 727.704 500.75 728.694 500.365C729.186 500.164 729.622 499.846 729.965 499.439C730.307 499.032 730.545 498.548 730.659 498.028C730.921 496.291 729.293 494.815 729.115 493.069C728.989 491.837 729.579 490.462 728.905 489.416C728.652 489.108 728.369 488.825 728.061 488.573C726.931 487.4 726.602 485.688 726.323 484.085L724.847 475.422C724.806 474.811 724.556 474.233 724.139 473.785C723.829 473.562 723.47 473.415 723.093 473.355C716.665 471.904 710.077 473.229 703.691 474.038C700.405 474.52 697.081 474.687 693.763 474.536C692.329 474.443 691.772 474.275 690.701 475.211C689.63 476.147 689.056 477.337 687.715 478.121Z" fill="#254B62"/>
<path d="M842.933 488.547C841.805 489.178 840.596 489.652 839.34 489.956C836.028 490.923 832.721 491.933 829.42 492.984C828.541 493.202 827.717 493.598 826.999 494.148C825.852 495.161 825.556 496.814 825.472 498.366C825.363 499.221 825.464 500.09 825.767 500.897C826.163 501.653 826.743 502.297 827.454 502.769C831.233 505.629 836.168 506.514 840.909 506.514C845.649 506.514 850.356 505.713 855.097 505.587C860.824 505.435 866.704 506.245 872.212 504.642C873.263 504.253 874.356 503.987 875.468 503.849C876.208 503.838 876.947 503.886 877.678 503.992C880.632 504.284 883.615 504.012 886.468 503.191C887.326 503.001 888.126 502.604 888.796 502.035C889.128 501.748 889.365 501.367 889.476 500.943C889.588 500.518 889.568 500.07 889.42 499.657C889.117 498.973 888.34 498.476 888.332 497.725C888.372 497.364 888.466 497.012 888.61 496.679C888.956 495.523 888.4 494.317 888.012 493.178C886.923 489.922 887.1 486.177 885.152 483.351C883.203 480.525 879.627 479.361 876.227 478.914C873.464 478.524 870.655 478.604 867.919 479.15C864.84 479.808 861.963 481.183 858.943 482.06C855.439 483.068 851.777 483.415 848.146 483.081C845.734 482.879 846.56 483.258 845.742 485.283C845.162 486.633 844.182 487.772 842.933 488.547Z" fill="#254B62"/>
<path d="M708.145 160.894C721.655 160.894 732.608 149.941 732.608 136.431C732.608 122.921 721.655 111.969 708.145 111.969C694.635 111.969 683.683 122.921 683.683 136.431C683.683 149.941 694.635 160.894 708.145 160.894Z" fill="#FBBEBE"/>
<path d="M885.489 479.799C877.897 486.319 867.648 489.17 857.653 489.272C853.435 489.314 849.057 488.858 845.464 486.673C845.21 485.29 845.109 483.797 844.856 482.414C840.495 481.503 837.113 477.951 835.004 474.021C832.895 470.09 831.824 465.72 830.255 461.553C827.859 455.21 824.35 449.364 820.841 443.561C817.618 438.213 814.388 432.848 810.718 427.795C808.289 424.421 805.657 421.249 803.253 417.883C796.442 408.515 791.554 397.89 788.871 386.622C788.461 384.461 787.877 382.337 787.125 380.27C785.674 376.744 783.017 373.876 780.967 370.663C778.757 367.194 777.241 363.33 776.505 359.283C776.091 356.989 775.383 354.509 773.08 354.273C768.238 363.678 763.304 373.235 755.982 380.886C754.831 381.991 753.778 383.193 752.835 384.48C752.079 385.729 751.403 387.025 750.811 388.36C749.675 390.754 748.166 392.952 746.34 394.872C744.81 396.509 742.792 397.609 740.587 398.01C742.214 406.115 741.246 414.527 737.82 422.051C736.8 424.277 735.577 426.403 734.615 428.655C730.684 437.934 731.595 448.402 731.182 458.466C731.146 460.575 730.897 462.674 730.44 464.733C729.419 468.85 727.31 473.228 728.331 477.344C717.753 481.385 706.002 481.131 694.8 479.428C692.609 479.227 690.482 478.581 688.55 477.53C686.961 476.405 685.575 475.019 684.45 473.43C684.017 472.967 683.696 472.41 683.514 471.802C683.075 469.879 685.201 468.428 686.188 466.741C687.175 465.054 687.352 462.38 685.994 460.996C686.669 449.955 689.722 439.174 690.397 428.099C690.667 423.712 690.557 419.309 690.76 414.914C690.962 410.519 691.435 406.243 691.924 401.924C693.037 392.063 695.737 382.396 695.357 372.485C695.241 369.434 695.943 366.408 697.39 363.72C698.609 361.678 699.992 359.737 701.523 357.917C706.703 351.228 712.928 344.522 714.775 336.263C715.728 332.004 717.837 328.106 719.929 324.277C721.169 321.991 722.46 319.654 724.434 317.976C725.507 317.233 726.505 316.385 727.411 315.445C728.795 313.665 728.845 311.227 729.663 309.102C730.085 308.005 730.735 306.993 731.047 305.862C731.304 304.614 731.431 303.342 731.426 302.067C731.696 297.984 733.265 294.036 734.919 290.299C731.03 288.048 727.597 285.09 724.796 281.577C723.855 280.437 723.036 279.201 722.35 277.891C720.612 274.466 720.216 270.561 719.398 266.807C717.449 257.849 712.97 249.422 712.346 240.269C712.16 237.477 712.346 234.592 711.376 231.952C710.928 230.835 710.404 229.75 709.807 228.705C709.219 227.678 708.771 226.577 708.474 225.432C707.934 222.943 708.676 220.371 708.474 217.84C708.272 215.605 707.318 213.513 706.846 211.328C706.364 208.485 706.281 205.589 706.601 202.724C706.812 199.35 707.546 195.866 707.259 192.534C706.794 187.021 707.497 181.471 709.321 176.247C711.145 171.024 714.05 166.243 717.846 162.217L718.04 162.023C719.651 160.336 721.414 158.843 722.865 157.055C724.838 154.659 726.239 151.842 728.322 149.514C729.233 148.476 730.262 147.548 731.165 146.502C731.993 145.405 732.91 144.378 733.906 143.432C734.411 142.964 735.021 142.626 735.686 142.448C736.351 142.27 737.049 142.258 737.719 142.411C737.888 143.669 738.283 144.887 738.883 146.005C740.638 146.14 742.198 146.384 743.944 146.519C744.754 146.558 745.557 146.682 746.34 146.89C747.985 147.388 749.301 148.578 750.71 149.598C754.219 152.07 758.529 153.217 761.979 155.764C767.04 159.518 769.571 165.718 772.625 171.277C776.665 178.725 783.253 185.06 786.121 193.023L790.077 203.854C792.667 210.923 795.256 218.017 798.766 224.681C803.65 233.96 810.263 242.319 814.185 252.028C814.577 253.002 815.304 253.804 816.235 254.289C821.576 261.78 826.323 269.677 830.432 277.908C832.6 282.26 834.649 286.782 835.274 291.598C836.193 298.406 834.337 305.289 831.756 311.649C831.339 312.56 831.055 313.526 830.913 314.517C830.744 316.128 831.36 317.714 831.528 319.325C831.691 320.83 831.468 322.351 830.879 323.745C830.354 324.725 829.911 325.746 829.554 326.799C829.099 328.739 829.909 330.713 830.347 332.653C831.832 339.224 831.562 346.031 831.191 352.763C830.997 356.137 833.722 358.811 835.991 361.283C840.208 365.913 843.498 371.329 846.678 376.736C848.407 379.478 849.865 382.383 851.031 385.407C852.237 388.858 852.718 392.51 853.384 396.095C855.527 407.154 862.545 416.93 864.451 428.023C865.334 433.104 867.585 437.849 870.963 441.747C871.981 442.801 872.92 443.929 873.772 445.121C874.355 446.067 874.82 447.082 875.156 448.141C875.985 450.604 876.376 453.194 876.311 455.792C876.178 457.035 876.249 458.292 876.522 459.512C877.315 462.085 880.15 463.502 881.314 465.923C882.478 468.344 881.676 471.448 882.157 474.198C882.52 476.419 883.711 478.42 885.489 479.799Z" fill="#77ABB7"/>
<path d="M630.245 247.567C627.478 248.984 624.534 250.435 621.439 250.233C618.655 250.055 616.116 248.546 614.024 246.698C612.337 245.23 610.599 243.4 608.381 243.552C606.896 243.653 605.648 244.657 604.5 245.61L598.385 250.73C597.356 251.422 596.577 252.428 596.166 253.598C596.046 254.392 596.094 255.203 596.31 255.977C596.588 257.344 597.052 258.938 598.368 259.402C599.684 259.866 601.118 258.87 602.51 258.491C603.36 258.273 604.253 258.29 605.095 258.538C605.937 258.785 606.696 259.256 607.293 259.899C607.79 260.388 608.09 261.043 608.136 261.738C608.136 263.265 606.449 264.269 604.897 264.345C603.345 264.421 601.86 263.915 600.325 264.007C600.232 263.996 600.138 264.003 600.048 264.028C599.958 264.053 599.874 264.096 599.801 264.154C599.728 264.212 599.667 264.285 599.623 264.367C599.578 264.449 599.55 264.539 599.541 264.632C599.445 265.164 599.486 265.713 599.658 266.226C599.831 266.739 600.13 267.2 600.527 267.567C601.329 268.299 602.262 268.871 603.277 269.254C604.457 269.838 605.731 270.209 607.04 270.351C609.629 270.52 612.008 269.086 614.463 268.25C617.769 267.137 621.329 267.103 624.821 267.112C628.313 267.12 631.856 267.171 635.205 266.192C638.554 265.214 641.734 263.046 643.041 259.815C643.196 259.514 643.246 259.17 643.185 258.837C643.054 258.481 642.804 258.183 642.476 257.993C637.769 254.509 635.863 250.275 630.566 247.769L630.245 247.567Z" fill="#FBBEBE"/>
<path d="M696.243 121.399C694.784 121.635 693.544 122.622 692.16 123.17C691.232 123.531 690.237 123.691 689.243 123.638C688.248 123.586 687.276 123.323 686.391 122.867C685.773 122.567 685.233 122.128 684.813 121.585C683.683 120.016 684.079 117.738 684.771 115.899C688.044 107.202 696.783 101.821 705.437 101.475C714.092 101.129 722.511 105.169 729.335 110.948C731.364 112.615 733.186 114.521 734.759 116.625C738.318 121.559 739.929 127.86 740.402 134.103C740.684 136.722 740.51 139.371 739.887 141.93C739.588 143.174 739.041 144.345 738.278 145.373C737.516 146.401 736.554 147.264 735.45 147.911C733.038 149.143 730.145 148.755 727.707 147.574C725.269 146.393 723.177 144.529 721.085 142.749C720.137 141.835 719.016 141.121 717.787 140.648C717.174 140.43 716.511 140.393 715.878 140.543C715.245 140.693 714.669 141.022 714.219 141.492C713.088 142.85 713.375 145.077 712.346 146.553C711.317 148.029 709.174 148.24 707.369 148.24C705.564 148.24 703.734 148.088 702.654 146.654C701.667 145.355 701.81 143.457 702.181 141.821C702.553 140.184 703.185 138.565 703.025 136.886C702.679 133.512 699.727 131.437 698.807 128.333C698.208 126.3 699.524 125.439 699.389 123.601C699.288 121.981 697.55 121.188 696.243 121.399Z" fill="#3F3D56"/>
<path opacity="0.1" d="M773.097 354.062V354.273C768.255 363.679 763.321 373.236 755.999 380.887C754.848 381.991 753.795 383.194 752.852 384.48C752.096 385.729 751.42 387.025 750.828 388.36C749.692 390.754 748.183 392.952 746.357 394.872L740.25 397.926L759.651 296.702L773.097 354.062Z" fill="black"/>
<path opacity="0.1" d="M744.898 200.86C743.231 202.653 741.386 204.27 739.389 205.685C733.822 209.903 728.423 213.885 723.016 218.338C718.658 221.887 714.238 225.362 709.756 228.764C709.168 227.738 708.72 226.637 708.423 225.491C707.883 223.003 708.626 220.43 708.423 217.9C708.221 215.664 707.268 213.572 706.795 211.388C706.313 208.545 706.231 205.649 706.551 202.784C706.762 199.41 707.495 195.926 707.209 192.594C706.742 187.067 707.448 181.504 709.281 176.269C711.114 171.035 714.033 166.246 717.846 162.218L718.04 162.024C718.947 161.496 719.909 161.067 720.908 160.742C722.378 160.226 723.948 160.055 725.496 160.243C727.043 160.43 728.527 160.97 729.832 161.822C734.419 165.204 738.508 169.213 741.979 173.732C743.887 175.883 745.598 178.201 747.091 180.658C748.758 183.866 749.439 187.496 749.048 191.091C748.658 194.685 747.214 198.084 744.898 200.86Z" fill="black"/>
<path d="M729.022 157.605C727.714 156.76 726.228 156.227 724.681 156.048C723.134 155.868 721.566 156.046 720.098 156.567C717.159 157.626 714.522 159.383 712.413 161.688C710.308 163.834 708.485 166.241 706.989 168.849C705.555 171.38 704.459 174.029 703.025 176.551C700.494 181.064 697.188 185.045 693.864 188.993C691.797 191.447 689.705 193.936 687.057 195.741C684.408 197.546 681.447 198.651 679.651 201.156C679.085 201.949 678.68 202.844 678.124 203.645C676.361 206.226 673.366 207.61 670.76 209.339C663.286 214.316 658.638 222.599 651.654 228.242C648.642 230.672 645.243 232.578 642.282 235.058C639.524 237.361 637.221 240.119 634.471 242.481C631.721 244.843 628.49 246.792 624.905 247.011C627.301 252.35 630.161 257.589 634.269 261.747C638.377 265.906 644.534 268.563 650.144 266.935C652.135 266.361 654.083 265.147 654.842 263.224C655.081 262.235 655.414 261.272 655.838 260.347C656.401 259.605 657.133 259.006 657.972 258.601C680.49 245.457 701.955 230.586 722.173 214.122C727.597 209.701 732.979 205.745 738.546 201.469C740.542 200.053 742.388 198.436 744.054 196.644C746.376 193.871 747.826 190.474 748.223 186.879C748.619 183.284 747.943 179.653 746.281 176.441C744.788 173.984 743.078 171.666 741.169 169.516C737.698 164.996 733.609 160.987 729.022 157.605Z" fill="#77ABB7"/>
<g opacity="0.1">
<path d="M709.056 144.841C707.369 144.841 705.42 144.689 704.341 143.255C703.362 141.956 703.497 140.058 703.868 138.421C704.239 136.785 704.872 135.165 704.712 133.487C704.366 130.113 701.414 128.038 700.494 124.933C699.895 122.901 701.211 122.04 701.076 120.201C700.958 118.607 699.229 117.814 697.921 118.025C696.462 118.261 695.222 119.248 693.839 119.796C692.91 120.157 691.916 120.316 690.921 120.264C689.927 120.212 688.954 119.949 688.069 119.493C687.451 119.193 686.912 118.754 686.492 118.21C685.361 116.642 685.758 114.364 686.449 112.525C686.449 112.458 686.508 112.399 686.534 112.331C685.828 113.46 685.235 114.655 684.762 115.899C684.071 117.738 683.674 120.016 684.805 121.585C685.224 122.128 685.764 122.567 686.382 122.867C687.267 123.323 688.24 123.586 689.234 123.638C690.229 123.691 691.223 123.531 692.152 123.17C693.535 122.622 694.775 121.635 696.234 121.399C697.542 121.188 699.271 121.981 699.389 123.575C699.524 125.414 698.208 126.275 698.807 128.308C699.71 131.412 702.662 133.521 703.025 136.861C703.194 138.548 702.578 140.168 702.181 141.796C701.785 143.424 701.675 145.33 702.654 146.629C703.733 148.063 705.665 148.198 707.369 148.215C709.073 148.232 711.266 148.114 712.346 146.528C712.812 145.731 713.118 144.852 713.248 143.938C712.101 144.756 710.499 144.858 709.056 144.841Z" fill="black"/>
<path d="M737.137 144.538C734.725 145.769 731.831 145.381 729.394 144.2C726.956 143.019 724.864 141.155 722.772 139.375C721.824 138.461 720.703 137.747 719.474 137.275C718.861 137.056 718.198 137.02 717.565 137.17C716.932 137.319 716.356 137.649 715.905 138.118C715.332 138.965 714.971 139.937 714.851 140.953C715.29 140.694 715.779 140.533 716.285 140.479C716.791 140.425 717.303 140.48 717.787 140.64C719.015 141.113 720.137 141.827 721.085 142.741C723.177 144.521 725.302 146.393 727.706 147.566C730.111 148.738 733.038 149.135 735.45 147.903C737.584 146.655 739.139 144.615 739.777 142.226C739.084 143.187 738.181 143.978 737.137 144.538Z" fill="black"/>
</g>
<path d="M527.208 507.164C541.184 507.164 552.514 495.834 552.514 481.858C552.514 467.882 541.184 456.552 527.208 456.552C513.232 456.552 501.902 467.882 501.902 481.858C501.902 495.834 513.232 507.164 527.208 507.164Z" fill="#254B62"/>
<path d="M527.208 497.884C536.059 497.884 543.235 490.709 543.235 481.857C543.235 473.006 536.059 465.83 527.208 465.83C518.356 465.83 511.181 473.006 511.181 481.857C511.181 490.709 518.356 497.884 527.208 497.884Z" fill="#345E72"/>
<path d="M507.806 442.211L524.407 479.748C524.654 480.311 525.057 480.791 525.569 481.133C526.08 481.474 526.678 481.662 527.292 481.674C527.907 481.687 528.512 481.523 529.037 481.203C529.561 480.882 529.983 480.419 530.253 479.867L549.983 439.681L507.806 442.211Z" fill="#254B62"/>
<path d="M369.467 507.164C383.443 507.164 394.773 495.834 394.773 481.858C394.773 467.882 383.443 456.552 369.467 456.552C355.491 456.552 344.161 467.882 344.161 481.858C344.161 495.834 355.491 507.164 369.467 507.164Z" fill="#254B62"/>
<path d="M369.467 497.884C378.319 497.884 385.494 490.709 385.494 481.857C385.494 473.006 378.319 465.83 369.467 465.83C360.616 465.83 353.44 473.006 353.44 481.857C353.44 490.709 360.616 497.884 369.467 497.884Z" fill="#345E72"/>
<path d="M350.066 442.211L366.667 479.748C366.914 480.311 367.317 480.791 367.828 481.133C368.339 481.474 368.937 481.662 369.552 481.674C370.166 481.687 370.772 481.523 371.296 481.203C371.821 480.882 372.243 480.419 372.512 479.867L392.243 439.681L350.066 442.211Z" fill="#254B62"/>
<path d="M609.334 261.485C609.265 260.846 609.036 260.235 608.669 259.707C608.302 259.18 607.808 258.753 607.234 258.465C606.749 258.259 606.229 258.152 605.702 258.151C605.176 258.15 604.655 258.255 604.17 258.46C603.685 258.665 603.247 258.965 602.88 259.343C602.514 259.72 602.227 260.168 602.037 260.659L587.52 296.703L583.303 458.661H590.051L592.581 297.049L608.98 263.932C609.353 263.174 609.477 262.318 609.334 261.485Z" fill="#254B62"/>
<path d="M310.842 446.007L333.617 431.667L579.507 429.559L585.833 446.007H310.842Z" fill="#23485E"/>
<path d="M310.842 461.191V446.008L590.287 443.309L590.017 453.6H315.903V461.191H310.842Z" fill="#254B62"/>
<path d="M346.27 516.02C360.246 516.02 371.576 504.69 371.576 490.714C371.576 476.738 360.246 465.408 346.27 465.408C332.294 465.408 320.964 476.738 320.964 490.714C320.964 504.69 332.294 516.02 346.27 516.02Z" fill="#254B62"/>
<path d="M346.27 506.742C355.122 506.742 362.297 499.566 362.297 490.715C362.297 481.863 355.122 474.688 346.27 474.688C337.419 474.688 330.243 481.863 330.243 490.715C330.243 499.566 337.419 506.742 346.27 506.742Z" fill="#345E72"/>
<path d="M326.869 451.069L343.47 488.606C343.717 489.169 344.12 489.649 344.631 489.99C345.142 490.331 345.74 490.519 346.355 490.532C346.969 490.544 347.574 490.38 348.099 490.06C348.624 489.74 349.046 489.276 349.315 488.724L369.046 448.538L326.869 451.069Z" fill="#254B62"/>
<path d="M542.813 516.02C556.789 516.02 568.119 504.69 568.119 490.714C568.119 476.738 556.789 465.408 542.813 465.408C528.837 465.408 517.507 476.738 517.507 490.714C517.507 504.69 528.837 516.02 542.813 516.02Z" fill="#254B62"/>
<path d="M542.813 506.742C551.665 506.742 558.84 499.566 558.84 490.715C558.84 481.863 551.665 474.688 542.813 474.688C533.961 474.688 526.786 481.863 526.786 490.715C526.786 499.566 533.961 506.742 542.813 506.742Z" fill="#345E72"/>
<path d="M523.412 451.069L540.013 488.606C540.26 489.169 540.663 489.649 541.174 489.99C541.685 490.331 542.283 490.519 542.898 490.532C543.512 490.544 544.117 490.38 544.642 490.06C545.166 489.74 545.588 489.276 545.858 488.724L565.588 448.538L523.412 451.069Z" fill="#254B62"/>
<path d="M447.916 379.79H342.474V437.994H447.916V379.79Z" fill="#77ABB7"/>
<path opacity="0.1" d="M411.644 389.912H379.59V396.66H411.644V389.912Z" fill="black"/>
<path opacity="0.1" d="M407.637 390.756H383.596V395.817H407.637V390.756Z" fill="black"/>
<path d="M555.044 379.79H449.603V437.994H555.044V379.79Z" fill="#77ABB7"/>
<path opacity="0.1" d="M518.772 389.912H486.718V396.66H518.772V389.912Z" fill="black"/>
<path opacity="0.1" d="M514.766 390.756H490.725V395.817H514.766V390.756Z" fill="black"/>
<path d="M447.916 319.899H342.474V378.103H447.916V319.899Z" fill="#77ABB7"/>
<path opacity="0.1" d="M411.644 330.021H379.59V336.77H411.644V330.021Z" fill="black"/>
<path opacity="0.1" d="M407.637 330.865H383.596V335.926H407.637V330.865Z" fill="black"/>
<path d="M555.044 319.899H449.603V378.103H555.044V319.899Z" fill="#77ABB7"/>
<path opacity="0.1" d="M518.772 330.021H486.718V336.77H518.772V330.021Z" fill="black"/>
<path opacity="0.1" d="M514.766 330.865H490.725V335.926H514.766V330.865Z" fill="black"/>
<path d="M447.916 259.165H342.474V317.369H447.916V259.165Z" fill="#77ABB7"/>
<path opacity="0.1" d="M411.644 269.287H379.59V276.035H411.644V269.287Z" fill="black"/>
<path opacity="0.1" d="M407.637 270.131H383.596V275.192H407.637V270.131Z" fill="black"/>
<path d="M555.044 259.165H449.603V317.369H555.044V259.165Z" fill="#77ABB7"/>
<path opacity="0.1" d="M518.772 269.287H486.718V276.035H518.772V269.287Z" fill="black"/>
<path opacity="0.1" d="M514.766 270.131H490.725V275.192H514.766V270.131Z" fill="black"/>
<path d="M555.044 198.431H449.603V256.634H555.044V198.431Z" fill="#77ABB7"/>
<path opacity="0.1" d="M518.772 208.553H486.718V215.301H518.772V208.553Z" fill="black"/>
<path opacity="0.1" d="M514.766 209.396H490.725V214.458H514.766V209.396Z" fill="black"/>
<defs>
<linearGradient id="paint0_linear_38_343" x1="740.478" y1="506.438" x2="740.478" y2="98.8938" gradientUnits="userSpaceOnUse">
<stop stop-color="#808080" stop-opacity="0.25"/>
<stop offset="0.54" stop-color="#808080" stop-opacity="0.12"/>
<stop offset="1" stop-color="#808080" stop-opacity="0.1"/>
</linearGradient>
</defs>
</svg>
