<?xml version="1.0" encoding="utf-8"?>
<!-- Generator: Adobe Illustrator 26.0.3, SVG Export Plug-In . SVG Version: 6.00 Build 0)  -->
<svg version="1.1" id="Layer_1" xmlns="http://www.w3.org/2000/svg" xmlns:xlink="http://www.w3.org/1999/xlink" x="0px" y="0px"
	 viewBox="0 0 300 300" style="enable-background:new 0 0 300 300;" xml:space="preserve">
<style type="text/css">
	.st0{fill:none;stroke:#FFFFFF;stroke-width:8;stroke-linecap:round;stroke-linejoin:round;stroke-miterlimit:10;}
	.st1{enable-background:new    ;}
	.st2{fill:#FFFFFF;}
	.st3{fill:none;stroke:#FFFFFF;stroke-width:2;stroke-miterlimit:10;}
</style>
<g>
	<line class="st0" x1="163" y1="50.4" x2="163" y2="177.8"/>
	<line class="st0" x1="176.6" y1="65.9" x2="176.6" y2="156.7"/>
	<line class="st0" x1="190.1" y1="50.4" x2="190.1" y2="177.8"/>
	<line class="st0" x1="203.6" y1="65.9" x2="203.6" y2="164.4"/>
	<line class="st0" x1="217.1" y1="98.7" x2="217.1" y2="148.9"/>
	<line class="st0" x1="82.9" y1="99.7" x2="82.9" y2="149.9"/>
	<line class="st0" x1="95.4" y1="50.4" x2="95.4" y2="177.8"/>
	<line class="st0" x1="109" y1="65.9" x2="109" y2="156.7"/>
	<line class="st0" x1="122.5" y1="50.4" x2="122.5" y2="177.8"/>
	<line class="st0" x1="136" y1="65.9" x2="136" y2="164.4"/>
	<line class="st0" x1="149.5" y1="98.7" x2="149.5" y2="148.9"/>
</g>
<g class="st1">
	<path class="st2" d="M3.3,206.6h3V237h-3V206.6z"/>
	<path class="st2" d="M16.8,214.5h2.9v4c1.2-1.5,2.4-2.7,3.8-3.5c1.4-0.8,2.9-1.1,4.6-1.1c1.7,0,3.2,0.4,4.5,1.3s2.3,2,2.9,3.4
		c0.6,1.4,0.9,3.7,0.9,6.8V237h-2.9v-10.7c0-2.6-0.1-4.3-0.3-5.2c-0.3-1.5-1-2.6-1.9-3.4s-2.2-1.1-3.7-1.1c-1.7,0-3.3,0.6-4.7,1.7
		s-2.3,2.6-2.7,4.3c-0.3,1.1-0.4,3.2-0.4,6.1v8.2h-2.9V214.5z"/>
	<path class="st2" d="M57.9,217l-1.9,1.9c-1.5-1.5-3.1-2.2-4.5-2.2c-0.9,0-1.7,0.3-2.4,0.9c-0.7,0.6-1,1.3-1,2.2
		c0,0.7,0.3,1.4,0.8,2.1c0.6,0.7,1.7,1.5,3.5,2.4c2.2,1.1,3.6,2.2,4.4,3.2c0.8,1,1.1,2.2,1.1,3.5c0,1.8-0.6,3.4-1.9,4.7
		s-2.9,1.9-4.9,1.9c-1.3,0-2.5-0.3-3.7-0.8c-1.2-0.6-2.2-1.3-2.9-2.3l1.8-2.1c1.5,1.7,3,2.5,4.7,2.5c1.2,0,2.1-0.4,3-1.1
		c0.8-0.7,1.2-1.6,1.2-2.6c0-0.8-0.3-1.6-0.8-2.2c-0.5-0.6-1.8-1.4-3.6-2.4c-2-1-3.4-2.1-4.1-3.1s-1.1-2.2-1.1-3.5
		c0-1.7,0.6-3.1,1.7-4.3s2.6-1.7,4.4-1.7C53.7,213.9,55.8,214.9,57.9,217z"/>
	<path class="st2" d="M69.5,206.2h2.9v8.3H77v2.5h-4.6v20h-2.9v-20h-3.9v-2.5h3.9V206.2z"/>
	<path class="st2" d="M84.2,214.5h3v3.3c0.9-1.3,1.8-2.3,2.8-2.9c1-0.6,2-1,3.1-1c0.8,0,1.7,0.3,2.6,0.8l-1.5,2.4
		c-0.6-0.3-1.1-0.4-1.5-0.4c-1,0-1.9,0.4-2.8,1.2c-0.9,0.8-1.6,2-2,3.7c-0.4,1.3-0.5,3.9-0.5,7.8v7.6h-3V214.5z"/>
	<path class="st2" d="M101.6,214.5h2.9V225c0,2.6,0.1,4.3,0.4,5.3c0.4,1.4,1.2,2.5,2.4,3.3c1.2,0.8,2.6,1.2,4.2,1.2
		c1.6,0,3-0.4,4.1-1.2c1.1-0.8,1.9-1.8,2.3-3.1c0.3-0.9,0.4-2.7,0.4-5.5v-10.5h3v11c0,3.1-0.4,5.4-1.1,7c-0.7,1.6-1.8,2.8-3.3,3.7
		s-3.3,1.3-5.5,1.3s-4-0.4-5.5-1.3c-1.5-0.9-2.6-2.1-3.3-3.7s-1.1-4-1.1-7.2V214.5z"/>
	<path class="st2" d="M131.6,214.5h2.9v3.9c1-1.4,2-2.5,3.1-3.1c1.5-0.9,3-1.3,4.6-1.3c1.1,0,2.1,0.2,3.1,0.6s1.8,1,2.4,1.7
		s1.2,1.7,1.6,3c1-1.8,2.2-3.1,3.6-4c1.4-0.9,3-1.4,4.7-1.4c1.6,0,2.9,0.4,4.1,1.2c1.2,0.8,2.1,1.9,2.6,3.3c0.6,1.4,0.9,3.5,0.9,6.3
		V237h-3v-12.3c0-2.4-0.2-4.1-0.5-5c-0.3-0.9-0.9-1.6-1.8-2.2c-0.8-0.5-1.8-0.8-3-0.8c-1.4,0-2.7,0.4-3.8,1.2s-2,1.9-2.5,3.3
		s-0.8,3.7-0.8,6.9v8.8h-2.9v-11.5c0-2.7-0.2-4.6-0.5-5.5s-0.9-1.7-1.8-2.3c-0.8-0.6-1.8-0.9-3-0.9c-1.3,0-2.6,0.4-3.7,1.2
		c-1.2,0.8-2,1.9-2.6,3.3c-0.6,1.4-0.8,3.4-0.8,6.3v9.5h-2.9V214.5z"/>
	<path class="st2" d="M194.2,229.5l2.4,1.3c-0.8,1.6-1.7,2.8-2.8,3.8c-1,1-2.2,1.7-3.5,2.2c-1.3,0.5-2.8,0.8-4.4,0.8
		c-3.7,0-6.5-1.2-8.6-3.6c-2.1-2.4-3.1-5.1-3.1-8.1c0-2.8,0.9-5.4,2.6-7.6c2.2-2.8,5.2-4.3,8.9-4.3c3.8,0,6.9,1.5,9.2,4.4
		c1.6,2.1,2.5,4.6,2.5,7.7h-20.2c0.1,2.6,0.9,4.7,2.5,6.4c1.6,1.7,3.6,2.5,6,2.5c1.1,0,2.3-0.2,3.3-0.6c1.1-0.4,2-0.9,2.8-1.6
		C192.5,232.1,193.3,231,194.2,229.5z M194.2,223.5c-0.4-1.5-0.9-2.8-1.7-3.7c-0.7-0.9-1.7-1.7-2.9-2.2s-2.5-0.8-3.8-0.8
		c-2.2,0-4.1,0.7-5.7,2.1c-1.2,1-2,2.6-2.6,4.6H194.2z"/>
	<path class="st2" d="M206.7,214.5h2.9v4c1.2-1.5,2.4-2.7,3.8-3.5c1.4-0.8,2.9-1.1,4.6-1.1c1.7,0,3.2,0.4,4.5,1.3s2.3,2,2.9,3.4
		s0.9,3.7,0.9,6.8V237h-2.9v-10.7c0-2.6-0.1-4.3-0.3-5.2c-0.3-1.5-1-2.6-1.9-3.4c-1-0.8-2.2-1.1-3.7-1.1c-1.7,0-3.3,0.6-4.7,1.7
		c-1.4,1.2-2.3,2.6-2.7,4.3c-0.3,1.1-0.4,3.2-0.4,6.1v8.2h-2.9V214.5z"/>
	<path class="st2" d="M239,206.2h2.9v8.3h4.6v2.5h-4.6v20H239v-20h-3.9v-2.5h3.9V206.2z"/>
	<path class="st2" d="M277.2,214.5V237h-2.8v-3.9c-1.2,1.5-2.6,2.6-4.1,3.3c-1.5,0.7-3.2,1.1-4.9,1.1c-3.2,0-5.9-1.2-8.1-3.5
		s-3.4-5.1-3.4-8.4c0-3.2,1.1-6,3.4-8.3c2.3-2.3,5-3.4,8.2-3.4c1.8,0,3.5,0.4,5,1.2c1.5,0.8,2.8,2,3.9,3.5v-4.1H277.2z M265.6,216.7
		c-1.6,0-3.1,0.4-4.5,1.2c-1.4,0.8-2.4,1.9-3.2,3.3c-0.8,1.4-1.2,2.9-1.2,4.5c0,1.6,0.4,3.1,1.2,4.5c0.8,1.4,1.9,2.6,3.3,3.4
		c1.4,0.8,2.8,1.2,4.4,1.2c1.6,0,3.1-0.4,4.5-1.2c1.4-0.8,2.5-1.9,3.3-3.2c0.8-1.4,1.1-2.9,1.1-4.6c0-2.6-0.9-4.8-2.6-6.5
		C270.2,217.6,268.1,216.7,265.6,216.7z"/>
	<path class="st2" d="M287.2,205.8h2.9V237h-2.9V205.8z"/>
</g>
<path class="st3" d="M82.9,118.1"/>
</svg>
