<?xml version="1.0" encoding="utf-8"?>
<!-- Generator: Adobe Illustrator 26.0.3, SVG Export Plug-In . SVG Version: 6.00 Build 0)  -->
<svg version="1.1" id="Layer_1" xmlns="http://www.w3.org/2000/svg" xmlns:xlink="http://www.w3.org/1999/xlink" x="0px" y="0px"
	 viewBox="0 0 300 300" style="enable-background:new 0 0 300 300;" xml:space="preserve">
<style type="text/css">
	.st0{fill:none;stroke:#FFFFFF;stroke-width:8;stroke-linecap:round;stroke-linejoin:round;stroke-miterlimit:10;}
	.st1{enable-background:new    ;}
	.st2{fill:#FFFFFF;}
	.st3{fill:none;stroke:#000000;stroke-width:2;stroke-miterlimit:10;}
</style>
<g>
	<line class="st0" x1="163" y1="50.4" x2="163" y2="177.8"/>
	<line class="st0" x1="176.6" y1="65.9" x2="176.6" y2="156.7"/>
	<line class="st0" x1="190.1" y1="50.4" x2="190.1" y2="177.8"/>
	<line class="st0" x1="203.6" y1="65.9" x2="203.6" y2="164.4"/>
	<line class="st0" x1="217.1" y1="98.7" x2="217.1" y2="148.9"/>
	<line class="st0" x1="82.9" y1="99.7" x2="82.9" y2="149.9"/>
	<line class="st0" x1="95.4" y1="50.4" x2="95.4" y2="177.8"/>
	<line class="st0" x1="109" y1="65.9" x2="109" y2="156.7"/>
	<line class="st0" x1="122.5" y1="50.4" x2="122.5" y2="177.8"/>
	<line class="st0" x1="136" y1="65.9" x2="136" y2="164.4"/>
	<line class="st0" x1="149.5" y1="98.7" x2="149.5" y2="148.9"/>
</g>
<g class="st1">
	<path class="st2" d="M3.3,206.6h3V237h-3V206.6z"/>
	<path class="st2" d="M16.8,214.5h2.9v4c1.2-1.5,2.4-2.7,3.8-3.5c1.4-0.8,2.9-1.1,4.6-1.1c1.7,0,3.2,0.4,4.5,1.3s2.3,2,2.9,3.4
		c0.6,1.4,0.9,3.7,0.9,6.8V237h-2.9v-10.7c0-2.6-0.1-4.3-0.3-5.2c-0.3-1.5-1-2.6-1.9-3.4s-2.2-1.1-3.7-1.1c-1.7,0-3.3,0.6-4.7,1.7
		s-2.3,2.6-2.7,4.3c-0.3,1.1-0.4,3.2-0.4,6.1v8.2h-2.9V214.5z"/>
	<path class="st2" d="M57.9,217l-1.9,1.9c-1.5-1.5-3.1-2.2-4.5-2.2c-0.9,0-1.7,0.3-2.4,0.9c-0.7,0.6-1,1.3-1,2.2
		c0,0.7,0.3,1.4,0.8,2.1c0.6,0.7,1.7,1.5,3.5,2.4c2.2,1.1,3.6,2.2,4.4,3.2c0.8,1,1.1,2.2,1.1,3.5c0,1.8-0.6,3.4-1.9,4.7
		s-2.9,1.9-4.9,1.9c-1.3,0-2.5-0.3-3.7-0.8c-1.2-0.6-2.2-1.3-2.9-2.3l1.8-2.1c1.5,1.7,3,2.5,4.7,2.5c1.2,0,2.1-0.4,3-1.1
		c0.8-0.7,1.2-1.6,1.2-2.6c0-0.8-0.3-1.6-0.8-2.2c-0.5-0.6-1.8-1.4-3.6-2.4c-2-1-3.4-2.1-4.1-3.1s-1.1-2.2-1.1-3.5
		c0-1.7,0.6-3.1,1.7-4.3s2.6-1.7,4.4-1.7C53.7,213.9,55.8,214.9,57.9,217z"/>
	<path class="st2" d="M69.5,206.2h2.9v8.3H77v2.5h-4.6v20h-2.9v-20h-3.9v-2.5h3.9V206.2z"/>
	<path class="st2" d="M84.2,214.5h3v3.3c0.9-1.3,1.8-2.3,2.8-2.9c1-0.6,2-1,3.1-1c0.8,0,1.7,0.3,2.6,0.8l-1.5,2.4
		c-0.6-0.3-1.1-0.4-1.5-0.4c-1,0-1.9,0.4-2.8,1.2c-0.9,0.8-1.6,2-2,3.7c-0.4,1.3-0.5,3.9-0.5,7.8v7.6h-3V214.5z"/>
	<path class="st2" d="M101.6,214.5h2.9V225c0,2.6,0.1,4.3,0.4,5.3c0.4,1.4,1.2,2.5,2.4,3.3c1.2,0.8,2.6,1.2,4.2,1.2
		c1.6,0,3-0.4,4.1-1.2c1.1-0.8,1.9-1.8,2.3-3.1c0.3-0.9,0.4-2.7,0.4-5.5v-10.5h3v11c0,3.1-0.4,5.4-1.1,7c-0.7,1.6-1.8,2.8-3.3,3.7
		s-3.3,1.3-5.5,1.3s-4-0.4-5.5-1.3c-1.5-0.9-2.6-2.1-3.3-3.7s-1.1-4-1.1-7.2V214.5z"/>
	<path class="st2" d="M131.6,214.5h2.9v3.9c1-1.4,2-2.5,3.1-3.1c1.5-0.9,3-1.3,4.6-1.3c1.1,0,2.1,0.2,3.1,0.6s1.8,1,2.4,1.7
		s1.2,1.7,1.6,3c1-1.8,2.2-3.1,3.6-4c1.4-0.9,3-1.4,4.7-1.4c1.6,0,2.9,0.4,4.1,1.2c1.2,0.8,2.1,1.9,2.6,3.3c0.6,1.4,0.9,3.5,0.9,6.3
		V237h-3v-12.3c0-2.4-0.2-4.1-0.5-5c-0.3-0.9-0.9-1.6-1.8-2.2c-0.8-0.5-1.8-0.8-3-0.8c-1.4,0-2.7,0.4-3.8,1.2s-2,1.9-2.5,3.3
		s-0.8,3.7-0.8,6.9v8.8h-2.9v-11.5c0-2.7-0.2-4.6-0.5-5.5s-0.9-1.7-1.8-2.3c-0.8-0.6-1.8-0.9-3-0.9c-1.3,0-2.6,0.4-3.7,1.2
		c-1.2,0.8-2,1.9-2.6,3.3c-0.6,1.4-0.8,3.4-0.8,6.3v9.5h-2.9V214.5z"/>
	<path class="st2" d="M194.2,229.5l2.4,1.3c-0.8,1.6-1.7,2.8-2.8,3.8c-1,1-2.2,1.7-3.5,2.2c-1.3,0.5-2.8,0.8-4.4,0.8
		c-3.7,0-6.5-1.2-8.6-3.6c-2.1-2.4-3.1-5.1-3.1-8.1c0-2.8,0.9-5.4,2.6-7.6c2.2-2.8,5.2-4.3,8.9-4.3c3.8,0,6.9,1.5,9.2,4.4
		c1.6,2.1,2.5,4.6,2.5,7.7h-20.2c0.1,2.6,0.9,4.7,2.5,6.4c1.6,1.7,3.6,2.5,6,2.5c1.1,0,2.3-0.2,3.3-0.6c1.1-0.4,2-0.9,2.8-1.6
		C192.5,232.1,193.3,231,194.2,229.5z M194.2,223.5c-0.4-1.5-0.9-2.8-1.7-3.7c-0.7-0.9-1.7-1.7-2.9-2.2s-2.5-0.8-3.8-0.8
		c-2.2,0-4.1,0.7-5.7,2.1c-1.2,1-2,2.6-2.6,4.6H194.2z"/>
	<path class="st2" d="M206.7,214.5h2.9v4c1.2-1.5,2.4-2.7,3.8-3.5c1.4-0.8,2.9-1.1,4.6-1.1c1.7,0,3.2,0.4,4.5,1.3s2.3,2,2.9,3.4
		s0.9,3.7,0.9,6.8V237h-2.9v-10.7c0-2.6-0.1-4.3-0.3-5.2c-0.3-1.5-1-2.6-1.9-3.4c-1-0.8-2.2-1.1-3.7-1.1c-1.7,0-3.3,0.6-4.7,1.7
		c-1.4,1.2-2.3,2.6-2.7,4.3c-0.3,1.1-0.4,3.2-0.4,6.1v8.2h-2.9V214.5z"/>
	<path class="st2" d="M239,206.2h2.9v8.3h4.6v2.5h-4.6v20H239v-20h-3.9v-2.5h3.9V206.2z"/>
	<path class="st2" d="M277.2,214.5V237h-2.8v-3.9c-1.2,1.5-2.6,2.6-4.1,3.3c-1.5,0.7-3.2,1.1-4.9,1.1c-3.2,0-5.9-1.2-8.1-3.5
		s-3.4-5.1-3.4-8.4c0-3.2,1.1-6,3.4-8.3c2.3-2.3,5-3.4,8.2-3.4c1.8,0,3.5,0.4,5,1.2c1.5,0.8,2.8,2,3.9,3.5v-4.1H277.2z M265.6,216.7
		c-1.6,0-3.1,0.4-4.5,1.2c-1.4,0.8-2.4,1.9-3.2,3.3c-0.8,1.4-1.2,2.9-1.2,4.5c0,1.6,0.4,3.1,1.2,4.5c0.8,1.4,1.9,2.6,3.3,3.4
		c1.4,0.8,2.8,1.2,4.4,1.2c1.6,0,3.1-0.4,4.5-1.2c1.4-0.8,2.5-1.9,3.3-3.2c0.8-1.4,1.1-2.9,1.1-4.6c0-2.6-0.9-4.8-2.6-6.5
		C270.2,217.6,268.1,216.7,265.6,216.7z"/>
	<path class="st2" d="M287.2,205.8h2.9V237h-2.9V205.8z"/>
</g>
<g class="st1">
	<path class="st2" d="M71.1,251.7H72l1.2,6.6l3.4-6.6h0.2l1.6,6.6l3.1-6.6h0.9l-4.2,8.9H78l-1.6-6.7l-3.5,6.7h-0.2L71.1,251.7z"/>
	<path class="st2" d="M83.7,251.5h0.8l-0.5,3.5c0.7-0.8,1.5-1.2,2.3-1.2c0.7,0,1.2,0.2,1.6,0.6c0.4,0.4,0.6,1,0.6,1.6
		c0,0.4,0,0.9-0.1,1.5l-0.4,3h-0.8l0.4-3c0.1-0.6,0.1-1.1,0.1-1.5c0-0.5-0.1-0.8-0.4-1.1s-0.7-0.4-1.1-0.4c-0.4,0-0.8,0.1-1.2,0.3
		c-0.4,0.2-0.7,0.5-0.9,0.9s-0.4,1-0.5,1.9l-0.4,2.8h-0.8L83.7,251.5z"/>
	<path class="st2" d="M96.8,257.5H91c0,0.8,0.2,1.4,0.6,1.8c0.4,0.4,1,0.7,1.7,0.7c0.5,0,0.9-0.1,1.3-0.3c0.4-0.2,0.7-0.5,1-0.8
		l0.6,0.5c-0.3,0.4-0.7,0.7-1.2,1c-0.5,0.2-1.1,0.4-1.7,0.4c-1,0-1.8-0.3-2.3-1c-0.5-0.6-0.8-1.4-0.8-2.2c0-0.7,0.2-1.3,0.5-1.9
		c0.3-0.6,0.8-1.1,1.4-1.4c0.6-0.3,1.2-0.5,1.9-0.5c0.8,0,1.5,0.3,2.1,0.9c0.6,0.6,0.8,1.3,0.8,2.2C96.9,257,96.9,257.2,96.8,257.5z
		 M96.1,256.7c0-0.6-0.2-1.1-0.6-1.5c-0.4-0.4-0.9-0.6-1.5-0.6c-0.7,0-1.2,0.2-1.7,0.6c-0.5,0.4-0.9,0.9-1.1,1.5H96.1z"/>
	<path class="st2" d="M98.6,254h0.8l-0.1,0.8c0.2-0.3,0.5-0.6,0.8-0.7c0.3-0.2,0.6-0.3,1-0.3c0.2,0,0.5,0.1,0.7,0.2l-0.4,0.8
		c-0.2-0.1-0.4-0.1-0.5-0.1c-0.3,0-0.6,0.1-0.9,0.3c-0.3,0.2-0.5,0.5-0.7,0.9s-0.3,1-0.5,1.9l-0.4,2.8h-0.8L98.6,254z"/>
	<path class="st2" d="M108.6,257.5h-5.9c0,0.8,0.2,1.4,0.6,1.8c0.4,0.4,1,0.7,1.7,0.7c0.5,0,0.9-0.1,1.3-0.3c0.4-0.2,0.7-0.5,1-0.8
		l0.6,0.5c-0.3,0.4-0.7,0.7-1.2,1c-0.5,0.2-1.1,0.4-1.7,0.4c-1,0-1.8-0.3-2.3-1c-0.5-0.6-0.8-1.4-0.8-2.2c0-0.7,0.2-1.3,0.5-1.9
		c0.3-0.6,0.8-1.1,1.4-1.4c0.6-0.3,1.2-0.5,1.9-0.5c0.8,0,1.5,0.3,2.1,0.9c0.6,0.6,0.8,1.3,0.8,2.2
		C108.7,257,108.6,257.2,108.6,257.5z M107.8,256.7c0-0.6-0.2-1.1-0.6-1.5c-0.4-0.4-0.9-0.6-1.5-0.6c-0.7,0-1.2,0.2-1.7,0.6
		c-0.5,0.4-0.9,0.9-1.1,1.5H107.8z"/>
	<path class="st2" d="M117.2,254.7l-0.5,0.7c-0.4-0.5-0.8-0.8-1.3-0.8c-0.3,0-0.5,0.1-0.7,0.3c-0.2,0.2-0.3,0.4-0.3,0.6
		c0,0.2,0.1,0.3,0.2,0.5c0.1,0.2,0.4,0.4,0.8,0.7c0.6,0.4,1,0.8,1.2,1.1c0.2,0.3,0.3,0.7,0.3,1.1c0,0.6-0.2,1-0.6,1.4
		s-0.9,0.5-1.5,0.5c-0.8,0-1.5-0.4-2.1-1.1l0.5-0.6c0.5,0.6,1,0.9,1.6,0.9c0.3,0,0.6-0.1,0.9-0.3c0.2-0.2,0.4-0.5,0.4-0.8
		c0-0.2-0.1-0.5-0.3-0.7c-0.1-0.1-0.4-0.4-0.9-0.7c-0.6-0.4-0.9-0.7-1.1-0.9c-0.2-0.2-0.3-0.5-0.3-0.8c0-0.5,0.2-0.9,0.6-1.2
		s0.8-0.5,1.4-0.5c0.3,0,0.6,0.1,0.9,0.2C116.7,254.2,117,254.4,117.2,254.7z"/>
	<path class="st2" d="M122,253.8c0.6,0,1.1,0.1,1.5,0.4c0.5,0.3,0.8,0.6,1.1,1.1c0.3,0.5,0.4,1,0.4,1.6c0,0.7-0.2,1.3-0.5,1.9
		s-0.8,1-1.3,1.4s-1.2,0.5-1.9,0.5c-0.9,0-1.6-0.3-2.2-0.9c-0.6-0.6-0.9-1.3-0.9-2.2c0-0.7,0.2-1.3,0.5-1.9s0.8-1.1,1.4-1.4
		C120.7,254,121.3,253.8,122,253.8z M122,254.6c-0.5,0-1,0.1-1.5,0.4c-0.5,0.3-0.8,0.6-1.1,1.1c-0.2,0.5-0.4,1-0.4,1.5
		c0,0.7,0.2,1.3,0.6,1.7c0.4,0.4,1,0.7,1.7,0.7c0.5,0,1-0.1,1.4-0.4s0.8-0.6,1-1.1c0.3-0.5,0.4-1,0.4-1.5c0-0.5-0.1-0.9-0.3-1.2
		c-0.2-0.4-0.5-0.6-0.8-0.8C122.7,254.7,122.4,254.6,122,254.6z"/>
	<path class="st2" d="M127.5,254h0.8l-0.4,2.8c-0.1,0.8-0.2,1.3-0.2,1.5c0,0.5,0.2,0.9,0.5,1.2c0.3,0.3,0.7,0.5,1.2,0.5
		c0.4,0,0.8-0.1,1.1-0.4c0.3-0.2,0.5-0.6,0.7-0.9c0.1-0.2,0.1-0.7,0.2-1.4l0.4-3.3h0.8l-0.3,2.5c-0.2,1.2-0.3,2-0.5,2.5
		c-0.2,0.5-0.5,0.9-0.9,1.2c-0.4,0.3-1,0.5-1.6,0.5c-0.7,0-1.3-0.2-1.8-0.7s-0.7-1-0.7-1.7c0-0.3,0-0.6,0.1-1l0.1-0.6l0-0.2
		L127.5,254z"/>
	<path class="st2" d="M134.6,254h0.8l-0.1,1c0.7-0.8,1.4-1.2,2.3-1.2c0.7,0,1.2,0.2,1.6,0.6c0.4,0.4,0.6,1,0.6,1.7
		c0,0.3,0,0.8-0.1,1.4l-0.4,3h-0.8l0.4-3c0.1-0.6,0.1-1.1,0.1-1.4c0-0.5-0.1-0.8-0.4-1.1c-0.3-0.3-0.6-0.4-1.1-0.4
		c-0.4,0-0.9,0.1-1.2,0.3c-0.4,0.2-0.7,0.5-0.9,0.9c-0.2,0.4-0.4,1-0.5,1.9l-0.4,2.8h-0.8L134.6,254z"/>
	<path class="st2" d="M147.8,260.6H147l0.1-1c-0.8,0.8-1.7,1.2-2.6,1.2c-0.9,0-1.6-0.3-2.2-0.9c-0.6-0.6-0.9-1.3-0.9-2.2
		c0-1,0.4-1.9,1.1-2.7c0.7-0.8,1.6-1.1,2.6-1.1c0.5,0,1,0.1,1.4,0.3c0.4,0.2,0.8,0.6,1.1,1.1l0.5-3.8h0.9L147.8,260.6z M144.6,260
		c0.5,0,1-0.1,1.5-0.4s0.8-0.6,1.1-1.1c0.3-0.5,0.4-1,0.4-1.6c0-0.7-0.2-1.2-0.6-1.7s-1-0.6-1.7-0.6c-0.8,0-1.5,0.3-2.1,0.9
		s-0.9,1.3-0.9,2.2c0,0.7,0.2,1.3,0.6,1.7S143.9,260,144.6,260z"/>
	<path class="st2" d="M160.2,255.4l-0.7,0.4c-0.5-0.8-1.2-1.2-2.2-1.2c-0.6,0-1.1,0.1-1.6,0.4s-0.9,0.6-1.1,1.1
		c-0.3,0.5-0.4,1-0.4,1.5c0,0.5,0.1,0.9,0.3,1.2c0.2,0.4,0.5,0.6,0.8,0.8c0.4,0.2,0.8,0.3,1.3,0.3c0.5,0,1-0.1,1.5-0.3
		c0.5-0.2,0.8-0.5,1.1-0.8l0.7,0.5c-0.4,0.5-0.9,0.8-1.4,1c-0.5,0.2-1.1,0.3-1.8,0.3c-1,0-1.9-0.3-2.4-0.8c-0.6-0.6-0.9-1.3-0.9-2.3
		c0-1,0.4-1.9,1.1-2.7c0.8-0.7,1.7-1.1,2.8-1.1c0.7,0,1.3,0.1,1.8,0.4C159.6,254.5,160,254.9,160.2,255.4z"/>
	<path class="st2" d="M165.1,253.8c0.6,0,1.1,0.1,1.5,0.4c0.5,0.3,0.8,0.6,1.1,1.1c0.3,0.5,0.4,1,0.4,1.6c0,0.7-0.2,1.3-0.5,1.9
		s-0.8,1-1.3,1.4s-1.2,0.5-1.9,0.5c-0.9,0-1.6-0.3-2.2-0.9c-0.6-0.6-0.9-1.3-0.9-2.2c0-0.7,0.2-1.3,0.5-1.9s0.8-1.1,1.4-1.4
		C163.8,254,164.4,253.8,165.1,253.8z M165.1,254.6c-0.5,0-1,0.1-1.5,0.4c-0.5,0.3-0.8,0.6-1.1,1.1c-0.2,0.5-0.4,1-0.4,1.5
		c0,0.7,0.2,1.3,0.6,1.7c0.4,0.4,1,0.7,1.7,0.7c0.5,0,1-0.1,1.4-0.4c0.4-0.3,0.8-0.6,1-1.1c0.3-0.5,0.4-1,0.4-1.5
		c0-0.5-0.1-0.9-0.3-1.2c-0.2-0.4-0.5-0.6-0.8-0.8C165.9,254.7,165.5,254.6,165.1,254.6z"/>
	<path class="st2" d="M170.2,254h0.8l-0.1,0.9c0.3-0.3,0.6-0.6,1-0.8s0.8-0.3,1.2-0.3c0.5,0,0.9,0.1,1.3,0.4c0.3,0.2,0.5,0.6,0.7,1
		c0.3-0.5,0.7-0.8,1.1-1.1c0.4-0.3,0.9-0.4,1.3-0.4c0.6,0,1.1,0.2,1.5,0.6s0.6,0.9,0.6,1.5c0,0.3,0,0.6-0.1,1l-0.5,3.6h-0.8l0.4-3.2
		c0.1-0.7,0.1-1.1,0.1-1.5c0-0.4-0.1-0.7-0.4-0.9c-0.3-0.2-0.6-0.4-1-0.4c-0.4,0-0.8,0.1-1.2,0.4c-0.4,0.3-0.6,0.6-0.8,1
		c-0.2,0.4-0.3,0.8-0.4,1.4l-0.4,3.2h-0.8l0.5-3.6c0.1-0.4,0.1-0.7,0.1-0.9c0-0.4-0.1-0.8-0.4-1c-0.3-0.3-0.6-0.4-1-0.4
		c-0.3,0-0.7,0.1-1,0.2c-0.3,0.2-0.6,0.4-0.8,0.6c-0.2,0.3-0.3,0.6-0.4,1c-0.1,0.4-0.2,0.7-0.2,1l-0.4,3.1h-0.8L170.2,254z"/>
	<path class="st2" d="M187.8,257.5h-5.9c0,0.8,0.2,1.4,0.6,1.8c0.4,0.4,1,0.7,1.7,0.7c0.5,0,0.9-0.1,1.3-0.3c0.4-0.2,0.7-0.5,1-0.8
		l0.6,0.5c-0.3,0.4-0.7,0.7-1.2,1c-0.5,0.2-1.1,0.4-1.7,0.4c-1,0-1.8-0.3-2.3-1c-0.5-0.6-0.8-1.4-0.8-2.2c0-0.7,0.2-1.3,0.5-1.9
		c0.3-0.6,0.8-1.1,1.4-1.4s1.2-0.5,1.9-0.5c0.8,0,1.5,0.3,2.1,0.9c0.6,0.6,0.8,1.3,0.8,2.2C187.8,257,187.8,257.2,187.8,257.5z
		 M187,256.7c0-0.6-0.2-1.1-0.6-1.5c-0.4-0.4-0.9-0.6-1.5-0.6c-0.7,0-1.2,0.2-1.7,0.6s-0.9,0.9-1.1,1.5H187z"/>
	<path class="st2" d="M193,254.7l-0.5,0.7c-0.4-0.5-0.8-0.8-1.3-0.8c-0.3,0-0.5,0.1-0.7,0.3c-0.2,0.2-0.3,0.4-0.3,0.6
		c0,0.2,0.1,0.3,0.2,0.5c0.1,0.2,0.4,0.4,0.8,0.7c0.6,0.4,1,0.8,1.2,1.1c0.2,0.3,0.3,0.7,0.3,1.1c0,0.6-0.2,1-0.6,1.4
		c-0.4,0.4-0.9,0.5-1.5,0.5c-0.8,0-1.5-0.4-2.1-1.1l0.5-0.6c0.5,0.6,1,0.9,1.6,0.9c0.3,0,0.6-0.1,0.9-0.3c0.2-0.2,0.4-0.5,0.4-0.8
		c0-0.2-0.1-0.5-0.3-0.7c-0.1-0.1-0.4-0.4-0.9-0.7c-0.6-0.4-0.9-0.7-1.1-0.9c-0.2-0.2-0.3-0.5-0.3-0.8c0-0.5,0.2-0.9,0.6-1.2
		s0.8-0.5,1.4-0.5c0.3,0,0.6,0.1,0.9,0.2C192.4,254.2,192.7,254.4,193,254.7z"/>
	<path class="st2" d="M199.2,251.5h0.8l-0.3,2.5h1.3l-0.1,0.7h-1.3l-0.8,5.8H198l0.8-5.8h-1.1l0.1-0.7h1.1L199.2,251.5z"/>
	<path class="st2" d="M205.3,253.8c0.6,0,1.1,0.1,1.5,0.4c0.5,0.3,0.8,0.6,1.1,1.1c0.3,0.5,0.4,1,0.4,1.6c0,0.7-0.2,1.3-0.5,1.9
		s-0.8,1-1.3,1.4s-1.2,0.5-1.9,0.5c-0.9,0-1.6-0.3-2.2-0.9c-0.6-0.6-0.9-1.3-0.9-2.2c0-0.7,0.2-1.3,0.5-1.9s0.8-1.1,1.4-1.4
		C204,254,204.6,253.8,205.3,253.8z M205.3,254.6c-0.5,0-1,0.1-1.5,0.4c-0.5,0.3-0.8,0.6-1.1,1.1c-0.2,0.5-0.4,1-0.4,1.5
		c0,0.7,0.2,1.3,0.6,1.7c0.4,0.4,1,0.7,1.7,0.7c0.5,0,1-0.1,1.4-0.4c0.4-0.3,0.8-0.6,1-1.1c0.3-0.5,0.4-1,0.4-1.5
		c0-0.5-0.1-0.9-0.3-1.2c-0.2-0.4-0.5-0.6-0.8-0.8C206.1,254.7,205.7,254.6,205.3,254.6z"/>
	<path class="st2" d="M214.1,251.5h0.8l-1.2,9.1h-0.8L214.1,251.5z"/>
	<path class="st2" d="M216.2,254h0.8l-0.9,6.6h-0.8L216.2,254z M216.9,251.3c0.2,0,0.3,0.1,0.5,0.2s0.2,0.3,0.2,0.5
		c0,0.2-0.1,0.4-0.2,0.5s-0.3,0.2-0.5,0.2c-0.2,0-0.4-0.1-0.5-0.2s-0.2-0.3-0.2-0.5c0-0.2,0.1-0.3,0.2-0.5S216.7,251.3,216.9,251.3z
		"/>
	<path class="st2" d="M221.8,251.7l-0.1,0.8c-0.3-0.3-0.6-0.4-0.9-0.4c-0.2,0-0.3,0.1-0.4,0.2s-0.2,0.5-0.3,1l-0.1,0.7h1.4l-0.1,0.7
		h-1.4l-0.8,5.8h-0.8l0.8-5.8h-0.8l0.1-0.7h0.8l0.1-0.6c0.1-0.7,0.2-1.1,0.3-1.4c0.1-0.2,0.3-0.4,0.5-0.6c0.2-0.1,0.5-0.2,0.7-0.2
		C221.1,251.3,221.4,251.4,221.8,251.7z"/>
	<path class="st2" d="M228.7,257.5h-5.9c0,0.8,0.2,1.4,0.6,1.8c0.4,0.4,1,0.7,1.7,0.7c0.5,0,0.9-0.1,1.3-0.3c0.4-0.2,0.7-0.5,1-0.8
		l0.6,0.5c-0.3,0.4-0.7,0.7-1.2,1c-0.5,0.2-1.1,0.4-1.7,0.4c-1,0-1.8-0.3-2.3-1c-0.5-0.6-0.8-1.4-0.8-2.2c0-0.7,0.2-1.3,0.5-1.9
		c0.3-0.6,0.8-1.1,1.4-1.4s1.2-0.5,1.9-0.5c0.8,0,1.5,0.3,2.1,0.9c0.6,0.6,0.8,1.3,0.8,2.2C228.7,257,228.7,257.2,228.7,257.5z
		 M227.9,256.7c0-0.6-0.2-1.1-0.6-1.5c-0.4-0.4-0.9-0.6-1.5-0.6c-0.7,0-1.2,0.2-1.7,0.6s-0.9,0.9-1.1,1.5H227.9z"/>
</g>
<path class="st3" d="M82.9,118.1"/>
</svg>
