<?xml version="1.0" encoding="utf-8"?>
<!-- Generator: Adobe Illustrator 26.0.3, SVG Export Plug-In . SVG Version: 6.00 Build 0)  -->
<svg version="1.1" id="Layer_1" xmlns="http://www.w3.org/2000/svg" xmlns:xlink="http://www.w3.org/1999/xlink" x="0px" y="0px"
	 viewBox="0 0 300 300" style="enable-background:new 0 0 300 300;" xml:space="preserve">
<style type="text/css">
	.st0{fill:none;stroke:#000000;stroke-width:8;stroke-linecap:round;stroke-linejoin:round;stroke-miterlimit:10;}
	.st1{enable-background:new    ;}
	.st2{fill:none;stroke:#000000;stroke-width:2;stroke-miterlimit:10;}
</style>
<g>
	<line class="st0" x1="164.7" y1="49.3" x2="164.7" y2="178.1"/>
	<line class="st0" x1="178.5" y1="65" x2="178.5" y2="156.8"/>
	<line class="st0" x1="192.1" y1="49.3" x2="192.1" y2="178.1"/>
	<line class="st0" x1="205.8" y1="65" x2="205.8" y2="164.6"/>
	<line class="st0" x1="219.4" y1="98.1" x2="219.4" y2="148.9"/>
	<line class="st0" x1="83.7" y1="99.2" x2="83.7" y2="149.9"/>
	<line class="st0" x1="96.4" y1="49.3" x2="96.4" y2="178.1"/>
	<line class="st0" x1="110.1" y1="65" x2="110.1" y2="156.8"/>
	<line class="st0" x1="123.8" y1="49.3" x2="123.8" y2="178.1"/>
	<line class="st0" x1="137.4" y1="65" x2="137.4" y2="164.6"/>
	<line class="st0" x1="151.1" y1="98.1" x2="151.1" y2="148.9"/>
</g>
<g class="st1">
	<path d="M3.3,207.2h3.1v30.7H3.3V207.2z"/>
	<path d="M16.9,215.2h2.9v4.1c1.2-1.6,2.5-2.7,3.9-3.5c1.4-0.8,3-1.2,4.6-1.2c1.7,0,3.2,0.4,4.5,1.3c1.3,0.9,2.3,2,2.9,3.5
		c0.6,1.5,0.9,3.7,0.9,6.8v11.7h-2.9v-10.8c0-2.6-0.1-4.4-0.3-5.2c-0.3-1.5-1-2.6-1.9-3.4c-1-0.8-2.2-1.1-3.8-1.1
		c-1.8,0-3.4,0.6-4.7,1.8c-1.4,1.2-2.3,2.6-2.8,4.3c-0.3,1.1-0.4,3.2-0.4,6.2v8.3h-2.9V215.2z"/>
	<path d="M58.4,217.7l-1.9,1.9c-1.6-1.5-3.1-2.3-4.6-2.3c-0.9,0-1.8,0.3-2.4,0.9c-0.7,0.6-1,1.4-1,2.2c0,0.7,0.3,1.4,0.8,2.1
		c0.6,0.7,1.7,1.5,3.5,2.4c2.2,1.1,3.7,2.2,4.4,3.3c0.8,1.1,1.2,2.2,1.2,3.6c0,1.9-0.7,3.4-2,4.7s-2.9,1.9-4.9,1.9
		c-1.3,0-2.6-0.3-3.8-0.9s-2.2-1.4-3-2.4l1.8-2.1c1.5,1.7,3.1,2.5,4.7,2.5c1.2,0,2.2-0.4,3-1.1c0.8-0.8,1.2-1.6,1.2-2.7
		c0-0.8-0.3-1.6-0.8-2.2c-0.5-0.6-1.8-1.4-3.7-2.4c-2-1.1-3.4-2.1-4.2-3.1c-0.7-1-1.1-2.2-1.1-3.5c0-1.7,0.6-3.2,1.8-4.3
		c1.2-1.1,2.7-1.7,4.5-1.7C54.2,214.6,56.3,215.6,58.4,217.7z"/>
	<path d="M70.2,206.8h2.9v8.4h4.6v2.5h-4.6v20.2h-2.9v-20.2h-4v-2.5h4V206.8z"/>
	<path d="M85,215.2h3v3.3c0.9-1.3,1.8-2.3,2.8-2.9c1-0.6,2-1,3.1-1c0.8,0,1.7,0.3,2.6,0.8l-1.5,2.5c-0.6-0.3-1.1-0.4-1.5-0.4
		c-1,0-1.9,0.4-2.8,1.2c-0.9,0.8-1.6,2-2.1,3.7c-0.4,1.3-0.5,3.9-0.5,7.8v7.7h-3V215.2z"/>
	<path d="M102.6,215.2h2.9v10.6c0,2.6,0.1,4.4,0.4,5.3c0.4,1.4,1.2,2.5,2.4,3.3c1.2,0.8,2.6,1.2,4.2,1.2s3-0.4,4.1-1.2
		c1.1-0.8,1.9-1.8,2.4-3.1c0.3-0.9,0.4-2.7,0.4-5.6v-10.6h3v11.1c0,3.1-0.4,5.5-1.1,7.1s-1.8,2.8-3.3,3.7c-1.5,0.9-3.3,1.3-5.5,1.3
		s-4.1-0.4-5.5-1.3c-1.5-0.9-2.6-2.1-3.3-3.8s-1.1-4-1.1-7.3V215.2z"/>
	<path d="M133,215.2h2.9v3.9c1-1.4,2.1-2.5,3.1-3.2c1.5-0.9,3-1.3,4.7-1.3c1.1,0,2.1,0.2,3.1,0.6c1,0.4,1.8,1,2.4,1.7
		c0.6,0.7,1.2,1.7,1.6,3.1c1-1.8,2.2-3.1,3.6-4.1c1.5-0.9,3-1.4,4.7-1.4c1.6,0,3,0.4,4.2,1.2s2.1,1.9,2.7,3.3
		c0.6,1.4,0.9,3.5,0.9,6.4v12.4h-3v-12.4c0-2.4-0.2-4.1-0.5-5c-0.3-0.9-0.9-1.6-1.8-2.2c-0.8-0.6-1.8-0.8-3-0.8
		c-1.4,0-2.7,0.4-3.9,1.3s-2,1.9-2.6,3.3s-0.8,3.7-0.8,7v8.9h-2.9v-11.6c0-2.7-0.2-4.6-0.5-5.6c-0.3-1-0.9-1.8-1.8-2.4
		c-0.8-0.6-1.9-0.9-3-0.9c-1.4,0-2.6,0.4-3.8,1.2c-1.2,0.8-2,1.9-2.6,3.3c-0.6,1.4-0.8,3.5-0.8,6.3v9.6H133V215.2z"/>
	<path d="M196.2,230.4l2.5,1.3c-0.8,1.6-1.7,2.9-2.8,3.8c-1.1,1-2.2,1.7-3.6,2.2s-2.8,0.8-4.5,0.8c-3.7,0-6.6-1.2-8.7-3.6
		c-2.1-2.4-3.1-5.2-3.1-8.2c0-2.9,0.9-5.4,2.7-7.7c2.2-2.9,5.2-4.3,9-4.3c3.9,0,7,1.5,9.3,4.4c1.6,2.1,2.5,4.7,2.5,7.8H179
		c0.1,2.6,0.9,4.8,2.5,6.5c1.6,1.7,3.6,2.5,6,2.5c1.2,0,2.3-0.2,3.4-0.6s2-0.9,2.8-1.6C194.5,232.9,195.4,231.9,196.2,230.4z
		 M196.2,224.3c-0.4-1.6-1-2.8-1.7-3.7c-0.7-0.9-1.7-1.7-3-2.3c-1.2-0.6-2.5-0.9-3.9-0.9c-2.2,0-4.1,0.7-5.7,2.1
		c-1.2,1-2.1,2.6-2.7,4.7H196.2z"/>
	<path d="M208.9,215.2h2.9v4.1c1.2-1.6,2.5-2.7,3.9-3.5c1.4-0.8,3-1.2,4.6-1.2c1.7,0,3.2,0.4,4.5,1.3c1.3,0.9,2.3,2,2.9,3.5
		c0.6,1.5,0.9,3.7,0.9,6.8v11.7h-2.9v-10.8c0-2.6-0.1-4.4-0.3-5.2c-0.3-1.5-1-2.6-1.9-3.4c-1-0.8-2.2-1.1-3.8-1.1
		c-1.8,0-3.4,0.6-4.7,1.8c-1.4,1.2-2.3,2.6-2.8,4.3c-0.3,1.1-0.4,3.2-0.4,6.2v8.3h-2.9V215.2z"/>
	<path d="M241.6,206.8h2.9v8.4h4.6v2.5h-4.6v20.2h-2.9v-20.2h-4v-2.5h4V206.8z"/>
	<path d="M280.1,215.2v22.7h-2.9V234c-1.2,1.5-2.6,2.6-4.1,3.4c-1.5,0.8-3.2,1.1-5,1.1c-3.2,0-6-1.2-8.2-3.5
		c-2.3-2.3-3.4-5.2-3.4-8.5c0-3.3,1.1-6.1,3.4-8.4c2.3-2.3,5.1-3.5,8.3-3.5c1.9,0,3.6,0.4,5.1,1.2s2.8,2,4,3.6v-4.2H280.1z
		 M268.5,217.4c-1.6,0-3.1,0.4-4.5,1.2s-2.5,1.9-3.3,3.4c-0.8,1.4-1.2,3-1.2,4.6c0,1.6,0.4,3.1,1.2,4.6c0.8,1.5,1.9,2.6,3.3,3.4
		c1.4,0.8,2.9,1.2,4.5,1.2c1.6,0,3.1-0.4,4.5-1.2c1.4-0.8,2.5-1.9,3.3-3.3c0.8-1.4,1.2-2.9,1.2-4.6c0-2.6-0.9-4.8-2.6-6.6
		C273.1,218.3,271,217.4,268.5,217.4z"/>
	<path d="M290.3,206.4h2.9v31.5h-2.9V206.4z"/>
</g>
<path class="st2" d="M83.7,117.8"/>
</svg>
