<svg width="34" height="32" viewBox="0 0 34 32" fill="none" xmlns="http://www.w3.org/2000/svg">
<path d="M12.909 30.6363C13.6622 30.6363 14.2727 30.0258 14.2727 29.2727C14.2727 28.5196 13.6622 27.9091 12.909 27.9091C12.1559 27.9091 11.5454 28.5196 11.5454 29.2727C11.5454 30.0258 12.1559 30.6363 12.909 30.6363Z" stroke="#77ABB7" stroke-width="2.72727" stroke-linecap="round" stroke-linejoin="round"/>
<path d="M27.909 30.6363C28.6622 30.6363 29.2727 30.0258 29.2727 29.2727C29.2727 28.5196 28.6622 27.9091 27.909 27.9091C27.1559 27.9091 26.5454 28.5196 26.5454 29.2727C26.5454 30.0258 27.1559 30.6363 27.909 30.6363Z" stroke="#77ABB7" stroke-width="2.72727" stroke-linecap="round" stroke-linejoin="round"/>
<path d="M2 2H7.45455L11.1091 20.2591C11.2338 20.8869 11.5753 21.4509 12.0739 21.8522C12.5725 22.2536 13.1964 22.4668 13.8364 22.4545H27.0909C27.7309 22.4668 28.3548 22.2536 28.8533 21.8522C29.3519 21.4509 29.6935 20.8869 29.8182 20.2591L32 8.81818H8.81818" stroke="#77ABB7" stroke-width="2.72727" stroke-linecap="round" stroke-linejoin="round"/>
</svg>
