<svg width="41" height="41" viewBox="0 0 41 41" fill="none" xmlns="http://www.w3.org/2000/svg">
<path d="M29.0417 3.41675H11.9583C7.2409 3.41675 3.41666 7.24098 3.41666 11.9584V29.0417C3.41666 33.7592 7.2409 37.5834 11.9583 37.5834H29.0417C33.7591 37.5834 37.5833 33.7592 37.5833 29.0417V11.9584C37.5833 7.24098 33.7591 3.41675 29.0417 3.41675Z" stroke="#254B62" stroke-width="3.41667" stroke-linecap="round" stroke-linejoin="round"/>
<path d="M27.3333 19.4238C27.5442 20.8455 27.3013 22.2976 26.6393 23.5733C25.9774 24.8491 24.93 25.8837 23.6461 26.5299C22.3623 27.1761 20.9073 27.401 19.4883 27.1727C18.0693 26.9443 16.7583 26.2743 15.742 25.258C14.7257 24.2417 14.0557 22.9308 13.8274 21.5117C13.599 20.0927 13.8239 18.6378 14.4701 17.3539C15.1163 16.0701 16.1509 15.0227 17.4267 14.3607C18.7025 13.6987 20.1545 13.4559 21.5762 13.6667C23.0265 13.8817 24.3691 14.5575 25.4058 15.5942C26.4425 16.6309 27.1183 17.9735 27.3333 19.4238Z" stroke="#254B62" stroke-width="3.41667" stroke-linecap="round" stroke-linejoin="round"/>
<path d="M29.8958 11.1042H29.9133" stroke="#254B62" stroke-width="3.41667" stroke-linecap="round" stroke-linejoin="round"/>
</svg>
